<?xml version="1.0" encoding="UTF-8"?>
<svg width="1644.8mm" height="477.69mm" version="1.1" viewBox="0 0 1644.8 477.69" xmlns="http://www.w3.org/2000/svg">
 <path d="m0 0h1644.8v349.73h-1644.8z" color="#000000" fill="#efefe9" stroke-width="4.0713" style="-inkscape-stroke:none;paint-order:stroke markers fill"/>
 <g transform="matrix(4.0713 0 0 4.0713 154.93 -389.83)">
  <g fill="#7d4245" stroke-width=".37098">
   <path d="m86.711 150.26h-3.8433v3.3239h3.7246v1.1574h-3.7246v5.5498h-1.2465v-11.189h5.0898z"/>
   <path d="m89.812 153.32v3.8878q0 0.40065 0.01484 0.68259 0.02968 0.28194 0.11871 0.59356 0.10387 0.29678 0.2671 0.48969 0.16323 0.17806 0.46001 0.29678 0.29678 0.11871 0.71227 0.11871t0.71227-0.11871q0.29678-0.11872 0.46001-0.29678 0.16323-0.19291 0.25226-0.48969 0.10387-0.31162 0.11871-0.59356 0.02968-0.28194 0.02968-0.68259v-3.8878h1.1871v4.0214q0 3.1459-2.7601 3.1459t-2.7601-3.1459v-4.0214z"/>
   <path d="m97.469 148.05v12.242h-1.1871v-12.242z"/>
   <path d="m100.84 148.05v12.242h-1.1871v-12.242z"/>
   <path d="m113.69 150.64-0.99422 0.63807q-0.69743-1.2168-1.9291-1.2168-0.75679 0-1.3058 0.48968-0.54904 0.48969-0.54904 1.2465 0 0.3413 0.14839 0.62324t0.46001 0.50452q0.31162 0.20775 0.51936 0.32646 0.22259 0.11871 0.62324 0.29678l0.74195 0.32646q0.63808 0.28194 1.0536 0.5342 0.41549 0.23743 0.81614 0.6084 0.4155 0.35614 0.6084 0.86066 0.20775 0.50453 0.20775 1.1426 0 1.4542-1.0239 2.4633-1.0239 0.99421-2.493 0.99421-1.3355 0-2.2852-0.78646-0.93486-0.80131-1.202-2.1071l1.2168-0.3413q0.11871 0.8755 0.74195 1.4839 0.62324 0.59356 1.4987 0.59356 0.92002 0 1.6026-0.62324 0.69743-0.63807 0.69743-1.5581 0-0.37098-0.13355-0.68259-0.11871-0.32646-0.28194-0.51937-0.14839-0.19291-0.48969-0.41549-0.34129-0.22259-0.5342-0.31162-0.19291-0.10387-0.62324-0.29678l-0.68259-0.29678q-1.1871-0.5342-1.8104-1.1574t-0.62324-1.7065q0-1.2613 0.92002-2.0478 0.92002-0.80131 2.211-0.80131 0.93486 0 1.6916 0.46001 0.75679 0.44517 1.202 1.2762z"/>
   <path d="m117.16 154.41v5.8762h-1.1871v-5.8762h-0.72711v-1.0981h0.72711v-2.5078h1.1871v2.5078h1.2465v1.0981z"/>
   <path d="m122.37 154.22q-0.99422 0-1.6323 0.74195-0.63808 0.74195-0.63808 1.7658 0 1.0832 0.6084 1.8697 0.62324 0.78647 1.6768 0.78647 1.0981 0 1.7065-0.75679 0.62324-0.77163 0.62324-1.8846 0-1.0832-0.63808-1.7955-0.63807-0.72711-1.7065-0.72711zm3.4723-0.90518v6.9743h-1.1871v-0.96454h-0.0297q-0.90518 1.1574-2.4039 1.1574-1.4839 0-2.4188-1.0832-0.92002-1.0832-0.92002-2.582 0-1.5432 0.92002-2.6117 0.92002-1.0832 2.4336-1.0832 1.4691 0 2.3891 1.1871h0.0297v-0.99421z"/>
   <path d="m133.22 153.82v1.5729h-0.0297q-0.92002-1.1723-2.1665-1.1723-1.0536 0-1.7658 0.75679-0.69743 0.75678-0.69743 1.8252t0.66775 1.8252q0.66776 0.75679 1.7362 0.75679 1.3503 0 2.2704-1.202h0.0297v1.5878q-1.0536 0.71227-2.211 0.71227-1.5878 0-2.6562-1.0536-1.0536-1.0536-1.0536-2.6265 0-1.5432 1.0832-2.6117 1.0981-1.0684 2.6413-1.0684 1.1723 0 2.1516 0.69743z"/>
   <path d="m136.23 148.05v7.8498l2.5375-2.582h1.5878l-2.9826 2.9678 3.5465 4.0065h-1.5729l-2.8046-3.1756-0.31162 0.31162v2.8639h-1.1871v-12.242z"/>
   <path d="m147.06 149.1 2.9381 8.384 3.6207-8.9628 3.6207 8.9628 2.9381-8.384h1.3504l-4.2885 11.767-3.6207-9.0073-3.6207 9.0073-4.2885-11.767z"/>
   <path d="m167.42 157.05h-5.4756q0.0148 0.97937 0.65291 1.662 0.63808 0.66776 1.6323 0.66776 1.3207 0 2.122-1.4394l1.009 0.57872q-1.0536 1.9587-3.2201 1.9587-1.5284 0-2.4781-1.0239-0.93486-1.0387-0.93486-2.5671 0-1.6174 0.90518-2.6859 0.90518-1.0832 2.4781-1.0832 1.6174 0 2.5078 1.1574 0.89034 1.1426 0.80131 2.7749zm-5.4162-1.0091h4.1698q-0.11871-0.77162-0.69743-1.291-0.57872-0.5342-1.3504-0.5342t-1.3949 0.5342q-0.62323 0.5342-0.72711 1.291z"/>
   <path d="m172.39 154.22q-0.99422 0-1.6323 0.74195-0.63808 0.74195-0.63808 1.7658 0 1.0832 0.6084 1.8697 0.62324 0.78647 1.6768 0.78647 1.0981 0 1.7065-0.75679 0.62324-0.77163 0.62324-1.8846 0-1.0832-0.63808-1.7955-0.63808-0.72711-1.7065-0.72711zm-3.3981 6.0692v-12.242h1.1871v6.2621h0.0297q0.90518-1.1871 2.3891-1.1871 1.5136 0 2.4336 1.0832 0.92002 1.0684 0.92002 2.5968 0 1.5136-0.93486 2.5968-0.92002 1.0832-2.4039 1.0832-1.5433 0-2.4039-1.1574h-0.0297v0.96454z"/>
   <path d="m182.18 160.29v-11.189h2.1071q1.3949 0 2.4188 0.28194t1.9439 1.0684q1.8549 1.6026 1.8549 4.2588 0 2.5375-1.8252 4.1698-0.93486 0.83099-1.9588 1.1278-1.009 0.28194-2.4633 0.28194zm1.2465-1.1574h0.90518q1.1426 0 1.9736-0.23743 0.84582-0.25226 1.5581-0.92002 1.3949-1.3058 1.3949-3.2794 0-2.0775-1.4542-3.3536-0.71228-0.63808-1.5433-0.86066-0.81614-0.22259-1.9291-0.22259h-0.90518z"/>
   <path d="m198.31 157.05h-5.4756q0.0148 0.97937 0.65292 1.662 0.63807 0.66776 1.6323 0.66776 1.3207 0 2.122-1.4394l1.0091 0.57872q-1.0536 1.9587-3.2201 1.9587-1.5284 0-2.4781-1.0239-0.93486-1.0387-0.93486-2.5671 0-1.6174 0.90518-2.6859 0.90518-1.0832 2.4781-1.0832 1.6174 0 2.5078 1.1574 0.89034 1.1426 0.8013 2.7749zm-5.4162-1.0091h4.1698q-0.11872-0.77162-0.69744-1.291-0.57872-0.5342-1.3504-0.5342-0.77162 0-1.3949 0.5342t-0.72711 1.291z"/>
   <path d="m200.18 153.32 2.0775 4.6891 2.0775-4.6891h1.3355l-3.413 7.4343-3.4278-7.4343z"/>
   <path d="m212.89 157.05h-5.4756q0.0148 0.97937 0.65291 1.662 0.63808 0.66776 1.6323 0.66776 1.3207 0 2.122-1.4394l1.009 0.57872q-1.0536 1.9587-3.2201 1.9587-1.5284 0-2.4781-1.0239-0.93486-1.0387-0.93486-2.5671 0-1.6174 0.90518-2.6859 0.90518-1.0832 2.4781-1.0832 1.6174 0 2.5078 1.1574 0.89034 1.1426 0.80131 2.7749zm-5.4162-1.0091h4.1698q-0.11871-0.77162-0.69743-1.291-0.57872-0.5342-1.3504-0.5342t-1.3949 0.5342q-0.62324 0.5342-0.72712 1.291z"/>
   <path d="m215.68 148.05v12.242h-1.1871v-12.242z"/>
   <path d="m223.53 159.41q-1.0684 1.0684-2.5968 1.0684-1.5284 0-2.5968-1.0684-1.0684-1.0684-1.0684-2.5968 0-1.5432 1.0684-2.6117 1.0684-1.0832 2.5968-1.0832 1.5284 0 2.5968 1.0832 1.0684 1.0684 1.0684 2.6117 0 1.5284-1.0684 2.5968zm-0.81614-4.4369q-0.69744-0.75679-1.7807-0.75679-1.0832 0-1.7807 0.75679-0.69744 0.74195-0.69744 1.8252 0 1.0832 0.69744 1.84 0.69743 0.74195 1.7807 0.74195 1.0832 0 1.7807-0.74195 0.69743-0.75679 0.69743-1.84 0-1.0832-0.69743-1.8252z"/>
   <path d="m229.57 154.22q-0.99421 0-1.6323 0.74195t-0.63808 1.7658q0 1.0832 0.6084 1.8697 0.62324 0.78647 1.6768 0.78647 1.0981 0 1.7065-0.75679 0.62324-0.77163 0.62324-1.8846 0-1.0832-0.63808-1.7955-0.63807-0.72711-1.7065-0.72711zm-2.211-0.90518v0.99421h0.0297q0.89034-1.1871 2.4039-1.1871 1.4839 0 2.4039 1.0981 0.93486 1.0832 0.93486 2.5968 0 1.5433-0.92002 2.6117-0.90518 1.0536-2.4336 1.0536-1.5136 0-2.3891-1.1723h-0.0297v4.8969h-1.1871v-10.892z"/>
   <path d="m240.86 157.05h-5.4756q0.0148 0.97937 0.65291 1.662 0.63808 0.66776 1.6323 0.66776 1.3207 0 2.122-1.4394l1.009 0.57872q-1.0536 1.9587-3.2201 1.9587-1.5284 0-2.4781-1.0239-0.93486-1.0387-0.93486-2.5671 0-1.6174 0.90518-2.6859 0.90518-1.0832 2.4781-1.0832 1.6174 0 2.5078 1.1574 0.89034 1.1426 0.80131 2.7749zm-5.4162-1.0091h4.1698q-0.11871-0.77162-0.69743-1.291-0.57872-0.5342-1.3504-0.5342t-1.3949 0.5342q-0.62323 0.5342-0.72711 1.291z"/>
   <path d="m243.62 153.32v0.75679h0.0297q0.37098-0.48969 0.68259-0.71228 0.32646-0.23742 0.86067-0.23742 0.48968 0 1.0684 0.32646l-0.56388 1.0832q-0.46001-0.31162-0.71227-0.31162-1.3652 0-1.3652 2.582v3.4872h-1.1871v-6.9743z"/>
  </g>
  <g fill="#3d1e21" stroke-width=".62383">
   <path d="m118.31 118.96v18.815h-4.8908v-18.815z"/>
   <path d="m131.24 130.06 5.9139 7.7105h-6.0885l-4.6163-7.2364h-0.0499v7.2364h-4.8908v-18.815h7.3112q2.9444 0 4.7411 1.4473 1.7966 1.4473 1.7966 4.3418 0 2.0212-1.0979 3.4934-1.073 1.4722-3.0193 1.8216zm-4.8409-7.3611v4.6912h0.4741q3.3936 0 3.3936-2.3456t-3.3936-2.3456z"/>
   <path d="m149.18 123.1h-5.814v3.1441h5.5146v4.1422h-5.5146v3.2439h5.814v4.1422h-10.705v-18.815h10.705z"/>
   <path d="m155.54 118.96 4.5414 11.428 4.5664-11.428h5.315l-8.0349 18.815h-3.7929l-7.9101-18.815z"/>
   <path d="m176.08 118.96v18.815h-4.8908v-18.815z"/>
   <path d="m183.64 119.56q2.3705-1.2227 5.0904-1.2227 2.7199 0 5.0904 1.2227 2.3705 1.1977 3.8428 3.4435t1.4722 5.0156q0 4.5664-2.9445 7.4859-2.9195 2.8946-7.4609 2.8946-4.5414 0-7.4859-2.8946-2.9195-2.9195-2.9195-7.4859 0-2.7698 1.4722-5.0156 1.4722-2.2458 3.8428-3.4435zm8.8334 5.0156q-1.572-1.4972-3.743-1.4972t-3.743 1.4972-1.572 3.4685q0 2.3955 1.5471 4.0174 1.5471 1.597 3.7679 1.597 2.2208 0 3.7679-1.597 1.5471-1.6219 1.5471-4.0174 0-1.9713-1.572-3.4685z"/>
   <path d="m213.68 120.01-1.9463 3.7929q-1.4972-1.2476-3.2439-1.2476-0.77354 0-1.4473 0.4242-0.64877 0.4242-0.64877 1.1478 0 0.49906 0.39924 0.8983 0.42421 0.39925 0.77355 0.54897 0.37429 0.14972 0.99812 0.34934l1.2476 0.3743q2.1959 0.64878 3.4186 1.8465 1.2227 1.1728 1.2227 3.2938 0 3.4186-1.9463 5.0654-2.096 1.7717-5.3399 1.7717-3.5433 0-6.6126-2.146l2.0961-3.9426q2.2208 1.9463 4.3418 1.9463 0.94821 0 1.6469-0.47411 0.72363-0.49906 0.72363-1.4223 0-1.2726-2.3705-1.9713-0.0749-0.025-0.59887-0.17467-1.3475-0.37429-2.121-0.69868t-1.5471-0.89831q-0.77355-0.59887-1.0979-1.4972t-0.32439-2.2208q0-2.8446 1.8216-4.5664 1.8216-1.7467 4.6662-1.7467 1.4223 0 3.0193 0.4242 1.6219 0.4242 2.8696 1.1229z"/>
  </g>
 </g>
 <path d="m0 349.72h1644.8v127.97h-1644.8z" color="#000000" fill="#642f32" stroke-width="4.0713" style="-inkscape-stroke:none;paint-order:stroke markers fill"/>
 <path d="m900.9 383.22h61.057v61.057h-61.057z" color="#000000" fill-opacity="0" stroke-width=".72588" style="-inkscape-stroke:none;paint-order:stroke markers fill"/>
 <path d="m1228 383.22h61.057v61.057h-61.057z" color="#000000" fill-opacity="0" stroke-width=".72588" style="-inkscape-stroke:none;paint-order:stroke markers fill"/>
 <path d="m1285.9 411.2-24.815-24.814c-1.4282-1.4288-3.7458-1.4288-5.1763 0l-5.1517 5.1534 6.5362 6.5362c1.5195-0.51303 3.2609-0.16733 4.4716 1.042a4.349 4.349 0 0 1 1.0324 4.4988l6.2993 6.3005c1.524-0.5254 3.2829-0.18647 4.4997 1.0332 1.7018 1.7007 1.7018 4.4574 0 6.1586a4.3551 4.3551 0 0 1-6.1603 0 4.3567 4.3567 0 0 1-0.9477-4.7367l-5.8744-5.875-9e-4 15.461a4.3707 4.3707 0 0 1 1.1521 0.82306c1.7014 1.7004 1.7014 4.4566 0 6.1603-1.7014 1.7004-4.459 1.7004-6.1586 0-1.701-1.7037-1.8406-4.4593-0.1405-6.1603 0.4206-0.42061 0.8352-0.73772 1.2854-0.9498v-15.605c-0.4498-0.21415-0.8644-0.5276-1.2858-0.95036-1.2881-1.2876-1.529-3.1786-0.868-4.7614l-6.408-6.4442-16.998 17.014c-1.4295 1.4299-1.4204 3.7479 0.012 5.1773l24.819 24.814c1.4285 1.4288 3.7482 1.4288 5.1789 0l24.699-24.698c1.4294-1.4302 1.4309-3.7493 0-5.1781z" color="#000000" fill="#efefe9" stroke-width=".45021" style="-inkscape-stroke:none"/>
 <path d="m1228 383.15h61.057v61.057h-61.057z" color="#000000" fill-opacity="0" stroke-width=".72588" style="-inkscape-stroke:none;paint-order:stroke markers fill"/>
 <path d="m1119 383.15h61.057v61.057h-61.057z" color="#000000" fill-opacity="0" stroke-width=".72588" style="-inkscape-stroke:none;paint-order:stroke markers fill"/>
 <path d="m1120.6 426.22h1.9199v-7.5792l2.9717 6.6067c0.3497 0.80083 0.8291 1.082 1.7714 1.082s1.402-0.28133 1.7519-1.082l2.9718-6.6067v7.5787h1.9198v-7.5664c0-0.73882-0.2951-1.096-0.9051-1.2799-1.4587-0.45378-2.4362-0.0631-2.8799 0.92293l-2.915 6.5216-2.8231-6.5216c-0.424-0.98465-1.4211-1.3772-2.8779-0.92292-0.6101 0.18361-0.9052 0.54132-0.9052 1.2798zm14.903-6.1699h1.9181v4.1757c-0.024 0.22758 0.072 0.75885 1.1242 0.77615h4.1742v-4.9735h1.9235v6.8103c0.012 1.6722-2.0738 2.0349-3.0355 2.0631h-6.0601v-1.2909h6.0708c1.2355-0.12906 1.089-0.74431 1.089-0.94926v-0.50424h-4.0786c-1.8986-0.0285-3.1062-0.84667-3.1218-1.7998 0-0.0879 0.041-4.2643 0-4.307zm10.618 6.1699h5.5192c0.6454 0 1.2731-0.1372 1.7713-0.36968 0.831-0.37944 1.2356-0.89793 1.2356-1.575v-1.402c0-0.55366-0.4598-1.0714-1.3651-1.4143-0.479-0.18646-1.0712-0.28336-1.6423-0.28336h-2.3267c-0.7744 0-1.1437-0.23329-1.2356-0.74953-0.024-0.0602-0.024-0.10952-0.024-0.17303v-0.87354c0-0.0521 0-0.0989 0.024-0.15919 0.092-0.39247 0.2952-0.5037 0.9776-0.56571l0.1856-0.0285h5.4805v-1.2782h-5.388c-0.7744 0-1.1808 0.0521-1.5506 0.15919-1.1436 0.35665-1.6424 0.92293-1.6424 1.9076v1.1194c0 0.86092 0.9776 1.6 2.62 1.7712 0.1857 0.0285 0.3697 0.0285 0.5536 0.0285h1.994c0.074 0 0.1466 0 0.2032 0.0285 0.6082 0.0521 0.8662 0.16163 1.0518 0.38189 0.095 0.0904 0.1498 0.21415 0.1466 0.34321v1.1213c0 0.13435-0.092 0.30738-0.2753 0.45379-0.1661 0.14819-0.4439 0.24672-0.8114 0.27155l-0.2032 0.0285h-5.298zm20.5-2.2277c0 1.3172 0.9794 2.0543 2.952 2.2028 0.1857 0.0285 0.3697 0.0285 0.5553 0.0285h5.0014v-1.2801h-5.0385c-1.126 0-1.5504-0.28296-1.5504-0.95994v-6.6193h-1.9181v6.6311zm-10.749 0.0659v-4.563c0-1.1583 0.8151-1.8615 2.4236-2.0829a3.6097 3.6097 0 0 1 0.5183-0.0366h3.6418c0.1856 0 0.3521 0.0285 0.5377 0.0366 1.6089 0.2223 2.4222 0.92456 2.4222 2.0829v4.563c0 0.94019-0.3449 1.4425-1.1419 1.7712l1.8917 1.7062h-2.2294l-1.5292-1.3805-1.5397 0.0989h-2.0525a4.1773 4.1773 0 0 1-1.1278-0.15919c-1.2215-0.33181-1.8139-0.97398-1.8139-2.0346zm2.0719-0.10993c0 0.0631 0.024 0.12336 0.037 0.19746 0.1116 0.53057 0.6119 0.82554 1.3682 0.82554h1.7433l-1.6016-1.4461h2.2293l1.3967 1.2623c0.2577-0.1372 0.4276-0.34688 0.4862-0.61676 0.024-0.0631 0.024-0.12336 0.024-0.18647v-4.3754c0-0.0521 0-0.10993-0.024-0.17303-0.1116-0.49328-0.6101-0.77616-1.3487-0.77616h-2.9045c-0.8505 0-1.4053 0.36968-1.4053 0.94984zm18.874-8.7101c-1.179-0.0285-2.0809 0.077-2.8516 0.40265-0.219 0.0932-0.5693 0.0932-0.6046 0.36805 0.1209 0.12621 0.1401 0.31634 0.2353 0.47024 0.1832 0.29883 0.4956 0.69656 0.7726 0.90534 0.3005 0.23043 0.6132 0.47381 0.9387 0.67164 0.5763 0.35217 1.2214 0.55337 1.7785 0.90509 0.3274 0.20846 0.6522 0.47024 0.9722 0.7056 0.1576 0.11522 0.2638 0.2968 0.4704 0.36968v-0.0285c-0.1079-0.1372-0.136-0.32733-0.2354-0.47024l-0.4369-0.43705c-0.4258-0.56571-0.9672-1.0626-1.5433-1.4763-0.4598-0.32937-1.4849-0.77424-1.6777-1.3084l-0.028-0.0285c0.3249-0.0366 0.7073-0.15349 1.006-0.23329 0.5055-0.1372 0.9564-0.10137 1.4764-0.23613l0.7055-0.20316v-0.13191c-0.2638-0.27156-0.4503-0.62772-0.739-0.87354-0.7495-0.63814-1.57-1.2782-2.415-1.8121-0.468-0.29517-1.0463-0.48611-1.5432-0.73715-0.1661-0.0851-0.4598-0.12621-0.5711-0.26871-0.2602-0.33262-0.401-0.75311-0.6029-1.1408a43.691 43.691 0 0 1-1.2074-2.5492c-0.2545-0.58163-0.4212-1.1564-0.7391-1.6777-1.522-2.5051-3.1627-4.0168-5.7034-5.5016-0.5389-0.31634-1.1917-0.4406-1.8774-0.603l-1.1083-0.066c-0.2244-0.0961-0.4581-0.3709-0.6699-0.5037-0.8413-0.53253-3-1.6881-3.6242-0.16733-0.3924 0.95993 0.5889 1.8969 0.9404 2.3833 0.2463 0.34159 0.5623 0.72347 0.7374 1.1065 0.1172 0.25243 0.1355 0.50456 0.2353 0.77095 0.2443 0.65764 0.4562 1.3718 0.7725 1.98 0.1596 0.30738 0.3343 0.63154 0.5359 0.90538 0.1234 0.16733 0.3355 0.24428 0.3697 0.5037-0.2068 0.28988-0.2191 0.73883-0.3355 1.1065-0.5248 1.653-0.3273 3.707 0.4364 4.9323 0.2333 0.37497 0.7848 1.1808 1.5432 0.87159 0.6631-0.27156 0.5143-1.1067 0.7038-1.8456 0.047-0.16733 0.024-0.28988 0.1006-0.40143v0.0285l0.6047 1.2077c0.4475 0.71932 1.2391 1.4708 1.9112 1.978 0.3497 0.26342 0.6241 0.71965 1.0749 0.87354v-0.0366h-0.028c-0.088-0.13435-0.2243-0.19216-0.3354-0.30046-0.2639-0.25771-0.5553-0.57833-0.7708-0.8735-0.6118-0.82937-1.1527-1.738-1.6442-2.684-0.2353-0.45102-0.4405-0.94952-0.6381-1.4088-0.075-0.17833-0.074-0.44528-0.2333-0.53607-0.2174 0.33629-0.5371 0.6085-0.7056 1.0063-0.2687 0.63431-0.3021 1.4107-0.4031 2.2137l-0.067 0.0285c-0.4669-0.11237-0.6314-0.59372-0.8043-1.0058-0.4399-1.0434-0.5212-2.7249-0.1347-3.9252 0.099-0.31105 0.5517-1.2906 0.368-1.5764-0.086-0.28622-0.375-0.45294-0.5359-0.67189a5.2953 5.2953 0 0 1-0.5371-0.93856c-0.3591-0.81508-0.5266-1.7271-0.9052-2.5493-0.1804-0.3941-0.4861-0.79207-0.7373-1.1421-0.2789-0.38719-0.5906-0.67165-0.806-1.1405-0.075-0.16733-0.1803-0.43295-0.068-0.60467 0.037-0.11522 0.088-0.16204 0.2016-0.20031 0.195-0.15105 0.7372 0.0521 0.9386 0.13435 0.5388 0.22515 0.9884 0.43702 1.4441 0.73911 0.2174 0.14534 0.4387 0.42578 0.7038 0.5037h0.3021c0.4721 0.10708 1.0007 0.0285 1.4429 0.16733 0.7797 0.23614 1.4799 0.60634 2.1127 1.0077 1.9337 1.22 3.5147 2.9578 4.5965 5.0314 0.175 0.33384 0.2495 0.65238 0.403 1.0063 0.3099 0.71415 0.6984 1.4494 1.0061 2.1479 0.3074 0.69823 0.6065 1.4003 1.0396 1.98 0.2276 0.30413 1.1102 0.46669 1.5098 0.63622 0.2813 0.11807 0.7409 0.24143 1.0061 0.40306 0.509 0.30657 1.0006 0.66969 1.4781 1.0061 0.2373 0.17018 0.969 0.53774 1.0061 0.8395zm-14.997-12.782a2.3806 2.3806 0 0 0-0.6029 0.066v0.0285h0.028c0.1173 0.24143 0.3241 0.39817 0.468 0.60438l0.3355 0.70397 0.029-0.0285c0.2089-0.14534 0.3021-0.38188 0.3021-0.7391-0.085-0.0879-0.095-0.19746-0.1681-0.3025-0.095-0.14005-0.281-0.21659-0.4031-0.33548z" color="#000000" fill="#efefe9" stroke-width=".45257" style="-inkscape-stroke:none"/>
 <path d="m1119 383.15h61.057v61.057h-61.057z" color="#000000" fill-opacity="0" stroke-width=".72588" style="-inkscape-stroke:none;paint-order:stroke markers fill"/>
 <path d="m1010 383.15h61.057v61.057h-61.057z" color="#000000" fill-opacity="0" stroke-width=".72588" style="-inkscape-stroke:none;paint-order:stroke markers fill"/>
 <path d="m1040.5 385.91a4.9352 4.9352 0 0 0-4.9404 4.9403 4.9352 4.9352 0 0 0 0.2703 1.3651l-11.49 6.6328c-0.3196-0.3371-0.6725-0.64876-1.0946-0.89406-2.3637-1.3579-5.3923-0.55097-6.7516 1.8127-1.3583 2.3637-0.551 5.3923 1.8127 6.7516 0.4217 0.24224 0.8653 0.41316 1.3161 0.52105v13.174c-0.4461 0.10707-0.885 0.27359-1.3033 0.51404-2.3632 1.3739-3.1704 4.3883-1.8103 6.7516 1.3578 2.3637 4.3733 3.1706 6.7504 1.8127 0.4178-0.24306 0.7681-0.55085 1.0853-0.8836l11.484 6.6305a4.9352 4.9352 0 0 0-0.2691 1.357 4.9352 4.9352 0 0 0 4.9404 4.9392c2.7316 0 4.9392-2.2213 4.9392-4.9392a4.9352 4.9352 0 0 0-0.2602-1.5504l11.359-6.5582c0.342 0.38392 0.7308 0.73454 1.2007 1.0048 2.3633 1.3579 5.3929 0.55097 6.7504-1.8127 1.3739-2.3636 0.567-5.3785-1.8103-6.7516-0.4177-0.2398-0.8569-0.40937-1.3033-0.51759v-13.17c0.4508-0.10789 0.8944-0.27889 1.3161-0.52105 2.3636-1.3738 3.1706-4.3883 1.8127-6.7516-1.3734-2.3637-4.3882-3.1706-6.7516-1.8127-0.4246 0.24673-0.7799 0.5605-1.1004 0.89993l-11.426-6.5958a4.9352 4.9352 0 0 0 0.2121-1.4082 4.9352 4.9352 0 0 0-4.9392-4.9403zm-3.5404 8.3655a4.9352 4.9352 0 0 0 0.1376 0.13068l-14.935 25.868c-0.062-0.0163-0.1262-0.0285-0.1889-0.0452v-13.201c1.2568-0.31309 2.39-1.1117 3.0857-2.3209 0.694-1.2082 0.8163-2.5836 0.4604-3.826zm7.0853 0.0122 11.432 6.6024c-0.353 1.2401-0.2297 2.6122 0.4628 3.8178 0.6956 1.2093 1.8289 2.0081 3.0856 2.3209v13.189c-0.063 0.0163-0.1254 0.0326-0.1876 0.0501l-14.936-25.868a4.9352 4.9352 0 0 0 0.1433-0.11318zm-4.8809 1.2392a4.9352 4.9352 0 0 0 1.3359 0.26464 4.9352 4.9352 0 0 0 1.3732-0.2052l14.925 25.849c-0.3339 0.31838-0.6304 0.68626-0.872 1.1063-0.2394 0.41686-0.3872 0.85787-0.4955 1.3033h-29.862c-0.1083-0.44532-0.2557-0.886-0.4955-1.3033-0.2422-0.41678-0.5496-0.76516-0.8812-1.0818zm-13.587 30.667h29.843c0.024 0.10708 0.064 0.20967 0.097 0.31471l-11.373 6.5678a4.9352 4.9352 0 0 0-3.6441-1.6169 4.9352 4.9352 0 0 0-3.545 1.5201l-11.427-6.6006c0.016-0.0619 0.033-0.12295 0.05-0.18524z" color="#000000" fill="#efefe9" stroke-width=".4423" style="-inkscape-stroke:none"/>
 <path d="m1010 383.22h61.057v61.057h-61.057z" color="#000000" fill-opacity="0" stroke-width=".72588" style="-inkscape-stroke:none;paint-order:stroke markers fill"/>
 <path d="m900.9 383.22h61.057v61.057h-61.057z" color="#000000" fill-opacity="0" stroke-width=".72588" style="-inkscape-stroke:none;paint-order:stroke markers fill"/>
 <path d="m916.35 387.61c-0.0822 0.0285-2.3898 1.3468-5.1271 2.9202-3.3169 1.9067-5.0204 2.9112-5.1114 3.0055-0.0778 0.0932-0.14006 0.19746-0.17955 0.31145-0.0688 0.23329-0.0737 34.075-4e-3 34.316 0.0244 0.0932 0.10667 0.23329 0.18117 0.30983 0.17914 0.18931 19.981 11.575 20.222 11.63 0.11196 0.0285 0.23736 0.0285 0.36153-0.0285 0.26993-0.0688 20.021-11.429 20.197-11.614 0.0712-0.0798 0.1543-0.21944 0.18117-0.31267 0.0367-0.10993 0.0468-1.8804 0.0468-5.6067v-5.4448l4.8146-2.7652c4.5397-2.6102 4.8176-2.7735 4.9342-2.9526l0.11888-0.19217v-5.8648c0-6.3839 0.0122-6.0245-0.24021-6.2555-0.068-0.0602-2.3806-1.4094-5.1447-3.0011l-5.0209-2.8876h-0.55822l-4.912 2.8209c-2.7042 1.5553-5.0028 2.8851-5.1148 2.9575-0.11196 0.0741-0.24509 0.2113-0.30005 0.30942l-0.0989 0.17303-0.0244 5.5246-0.0244 5.5268-4.0563 2.3361c-2.2312 1.2826-4.0884 2.3443-4.1279 2.3545-0.0713 0.0285-0.077-0.50619-0.077-10.662v-10.689l-0.10667-0.18402c-0.13394-0.22515 0.46682 0.13435-5.5611-3.3314-5.0549-2.9068-4.9337-2.8461-5.2736-2.7188zm4.6467 4.2322c2.1146 1.2132 3.8448 2.217 3.8448 2.2294 0 0.0285-1.8543 1.0843-4.1202 2.3869l-4.1229 2.3671-4.1153-2.3668c-2.2612-1.3029-4.1142-2.3746-4.1142-2.3872 0-0.0285 1.8498-1.0839 4.1114-2.3833l4.1057-2.3619 0.28296 0.15349c1.3783 0.78328 2.7542 1.5701 4.1276 2.3614zm29.427 5.4448c2.2262 1.282 4.0681 2.3413 4.0854 2.3586 0.0468 0.0411-8.1192 4.7362-8.2308 4.7312-0.11196 0-8.1771-4.6541-8.1738-4.7106 4e-3 -0.066 8.1186-4.7331 8.2009-4.7205 0.0366 0.0285 1.8917 1.0637 4.1183 2.3413zm-38.579 0.67763 3.9246 2.2596 0.0244 11.188 0.0244 11.19 0.0953 0.15105c0.0525 0.0794 0.14453 0.18931 0.21374 0.23857 0.0651 0.0468 2.2488 1.292 4.8525 2.7611l4.7301 2.6711v4.7332c0 2.5972-0.0244 4.7284-0.0407 4.7284s-4.106-2.34-9.0841-5.2047l-9.0495-5.2044-0.0122-15.999-4e-3 -15.995 0.20071 0.10992c0.11644 0.0631 1.9737 1.1284 4.1326 2.3712zm13.859 7.8753v10.31l-0.15959 0.10423c-0.21578 0.1372-8.0753 4.6544-8.1019 4.6544-0.0122 0-0.0244-4.6547-0.0244-10.344l4e-3 -10.34 4.106-2.3619c2.2579-1.2994 4.1199-2.354 4.1422-2.3463 0.0163 0.0285 0.0285 4.6563 0.0285 10.324zm15.664-2.3712 4.1156 2.366v4.6909c0 4.45-4e-3 4.6893-0.0721 4.6632-0.0407-0.0285-1.906-1.0839-4.14-2.3706l-4.0692-2.3364v-4.689c0-2.5814 0.0122-4.6908 0.0244-4.6908 0.0244 0 1.8794 1.0642 4.1405 2.3668zm14.028 2.2939c0 2.5679-0.0163 4.686-0.0366 4.7065-0.0285 0.0468-8.1694 4.7373-8.221 4.7373-0.0122 0-0.0244-2.1084-0.0244-4.6901v-4.6892l4.106-2.3633c2.2612-1.2977 4.1233-2.3619 4.1405-2.3619 0.0244 0 0.0367 2.096 0.0367 4.6607zm-10.829 10.927-18.061 10.309-8.191-4.6591s18.043-10.436 18.116-10.409zm0.90949 6.0881-0.0163 4.6983-9.0445 5.2045c-4.9765 2.8645-9.0668 5.2044-9.0874 5.2044-0.0244 0-0.0366-1.9125-0.0366-4.7285v-4.7329l9.066-5.1704c4.9814-2.8426 9.0747-5.1694 9.0964-5.1743 0.0244 0 0.0244 2.1136 0.0244 4.6986z" color="#000000" fill="#efefe9" stroke-width=".4106" style="-inkscape-stroke:none"/>
 <path d="m791.86 383.12h61.057v61.057h-61.057z" color="#000000" fill-opacity="0" stroke-width=".72588" style="-inkscape-stroke:none;paint-order:stroke markers fill"/>
 <path d="m822.4 396.56c-7.6251 0-12.389 3.8108-14.296 11.436 2.8585-3.8116 6.1954-5.2407 10.007-4.2879 2.1761 0.54238 3.7315 2.1205 5.4536 3.8692 2.8031 2.8445 6.0476 6.1375 13.133 6.1375 7.6245 0 12.389-3.8113 14.296-11.438-2.859 3.8135-6.1954 5.2426-10.007 4.2898-2.1758-0.54295-3.7293-2.1202-5.4536-3.8689-2.8011-2.8448-6.0448-6.1378-13.132-6.1378zm-14.296 17.155c-7.6245 0-12.389 3.8116-14.296 11.438 2.8585-3.8138 6.1949-5.2429 10.007-4.2898 2.1762 0.54295 3.7315 2.1202 5.4536 3.8689 2.8031 2.8445 6.0476 6.1378 13.133 6.1378 7.6245 0 12.389-3.811 14.296-11.436-2.859 3.8116-6.1954 5.241-10.007 4.2878-2.1757-0.54238-3.7293-2.1205-5.4536-3.8689-2.8011-2.8445-6.0448-6.1378-13.132-6.1378z" color="#000000" fill="#efefe9" stroke-width=".44675" style="-inkscape-stroke:none"/>
 <path d="m682.83 383.19h61.057v61.057h-61.057z" color="#000000" fill-opacity="0" stroke-width=".72588" style="-inkscape-stroke:none;paint-order:stroke markers fill"/>
 <path d="m722.99 396.63a0.30963 0.30963 0 0 0-0.15267 0.0411 0.32928 0.32928 0 0 0-0.16367 0.27807v8.2555a0.24597 0.24597 0 0 1-0.11562 0.20316 0.23943 0.23943 0 0 1-0.22678 0l-1.3371-0.77314a0.64807 0.64808 0 0 0-0.64461 0l-5.3502 3.1112a0.64544 0.64544 0 0 0-0.32896 0.55829v6.2094c0 0.22759 0.12703 0.44504 0.32896 0.55969l5.3512 3.1117a0.64807 0.64808 0 0 0 0.64376 0l5.3512-3.1117c0.20234-0.11522 0.32896-0.331 0.32896-0.55969v-15.481c0-0.24143-0.12703-0.4579-0.32896-0.57093l-3.1924-1.7899a0.36459 0.36459 0 0 0-0.16367-0.0411zm-31.57 7.7483c-0.10015 0-0.20072 0.0366-0.28866 0.0879l-5.3512 3.1002a0.65112 0.65112 0 0 0-0.32856 0.57068l0.0122 8.3302c0 0.11522 0.0619 0.22759 0.16366 0.28052a0.28609 0.28609 0 0 0 0.31553 0l3.1814-1.8288a0.64544 0.64544 0 0 0 0.32733-0.55911v-3.8985c0-0.22759 0.12662-0.44528 0.32897-0.55944l1.3498-0.78711a0.60621 0.60621 0 0 1 0.32815-0.0879c0.11318 0 0.22758 0.0285 0.31552 0.0879l1.3502 0.78711c0.20235 0.11522 0.32896 0.331 0.32896 0.55944v3.8991c0 0.22758 0.12581 0.44442 0.32734 0.55801l3.1556 1.8291a0.30703 0.30703 0 0 0 0.32815 0 0.31575 0.31575 0 0 0 0.16407-0.28051v-8.3304c0-0.22759-0.12662-0.44447-0.32896-0.55916l-5.3384-3.1114a0.76887 0.76887 0 0 0-0.28947-0.0879h-0.0525zm43.905 0.0904v1e-3l-8.9e-4 8.1e-4c-0.10993 0-0.22026 0.0285-0.32082 0.0851l-5.3515 3.1095c-0.20234 0.11522-0.32733 0.331-0.32733 0.55993v6.2103c0 0.22758 0.1254 0.44446 0.32733 0.55887l5.3131 3.048a0.62366 0.62366 0 0 0 0.63154 0l3.2185-1.8025a0.31575 0.31575 0 0 0 0.16366-0.28052 0.31575 0.31575 0 0 0-0.16366-0.27888l-5.376-3.112a0.33144 0.33145 0 0 1-0.16367-0.28133v-1.943a0.314 0.314 0 0 1 0.16367-0.27807l1.6808-0.96518a0.30747 0.30747 0 0 1 0.32815 0l1.6769 0.96518a0.33232 0.33232 0 0 1 0.16408 0.27807v1.5237c0 0.11522 0.0627 0.22759 0.16366 0.2793a0.30703 0.30703 0 0 0 0.32897 0l3.1797-1.8664a0.63674 0.63674 0 0 0 0.31675-0.5583v-1.5112c0-0.22758-0.12703-0.44442-0.31675-0.55939l-5.3123-3.0966a0.65373 0.65373 0 0 0-0.32285-0.0879zm-29.238 0.0285a0.59921 0.59921 0 0 0-0.29679 0.0794l-5.3076 3.0821 1.857 3.4061 3.8107-6.562a0.87225 0.87225 0 0 0-0.0619 0h-9e-4zm0.24673 0.0659 3.7537 6.4604 1.7641-3.2467a0.5844 0.5844 0 0 0-0.1087-0.0879l-2.7349-1.5888-2.6328-1.521c-0.0122 0-0.0244 0-0.0407-0.0285zm-0.10871 0.0285-3.8264 6.5872 3.7951 6.9625c0.0122 0 0.0244 0 0.0285-0.0285l3.8025-6.9985-3.8028-6.5447zm-5.8338 3.1279a0.58876 0.58876 0 0 0-0.25079 0.48973v6.2368c0 0.0989 0.0244 0.19746 0.0733 0.28215l2.062-3.5512zm11.535 0.14819-1.7754 3.2667 1.8831 3.242v-6.168c0-0.12092-0.0407-0.24143-0.10829-0.34036zm8.7466 1.2497c0.0244 0 0.0586 0 0.0831 0.0285l1.8286 1.0675c0.0525 0.0285 0.0761 0.0879 0.0761 0.14005v2.1342c0 0.0631-0.0244 0.11522-0.0761 0.14005l-1.8299 1.0662a0.18797 0.18797 0 0 1-0.16448 0l-1.8294-1.0653c-0.0525-0.0285-0.0769-0.0904-0.0769-0.14006v-2.1342c0-0.0631 0.0244-0.11237 0.0769-0.14005l1.8294-1.0675a0.18535 0.18535 0 0 1 0.083-0.0285zm14.634 0.86337a0.11339 0.11339 0 0 0-0.0635 0.0285l-1.0231 0.59673a0.13084 0.13084 0 0 0-0.0619 0.11237v1.195c0 0.0521 0.0244 0.0904 0.0619 0.11522l1.0231 0.59702a0.11426 0.11426 0 0 0 0.12662 0l1.0223-0.59727a0.13432 0.13432 0 0 0 0.0627-0.11236v-1.1943a0.13214 0.13214 0 0 0-0.0627-0.11237l-1.0223-0.59783a0.11339 0.11339 0 0 0-0.0627-0.0285v-8.2e-4zm-25.216 1.2648-3.7123 6.8317h4e-3l5.3587-3.1122c0.15023-0.0851 0.24509-0.23044 0.27807-0.3941l-1.9302-3.3227zm-7.7554 0.0411-2.0562 3.5402c0.0407 0.0521 0.0944 0.0989 0.15267 0.13436l5.3005 3.0799 0.0586 0.0285h9.7e-4a0.60053 0.60053 0 0 0 0.1311 0.0578c0.0122 0 0.0244 0.0285 0.0407 0.0285 0.0244 0 0.0525 0.0285 0.0774 0.0285 0.0122 8.5e-4 0.0244 8.5e-4 0.0366 8.5e-4l-3.741-6.8646zm10.689 5.8412c-0.18647 0-0.37212 0.0468-0.53009 0.1315l-5.0371 2.9353a1.0715 1.0715 0 0 0-0.53005 0.92675v5.8525c0 0.38148 0.20194 0.7369 0.53005 0.92761l1.3262 0.76157c0.64334 0.31757 0.87008 0.31594 1.1601 0.31594 0.94637 0 1.4897-0.58358 1.4897-1.5869v-5.7756a0.15526 0.15526 0 0 0-0.15064-0.15349h-0.64335a0.15526 0.15526 0 0 0-0.15349 0.15349v5.7778c0 0.44471-0.46506 0.88918-1.2094 0.50839l-1.3764-0.79973c-0.0525-0.0285-0.0753-0.0904-0.0753-0.14006v-5.8547c0-0.0521 0.0244-0.11522 0.0753-0.14005l5.0349-2.9202c0.0366-0.0285 0.10138-0.0285 0.15267 0l5.0346 2.9199c0.0525 0.0285 0.077 0.077 0.077 0.14006v5.8547c0 0.0631-0.0244 0.11522-0.077 0.14005l-5.036 2.9336c-0.0366 0.0285-0.10138 0.0285-0.15267 0l-1.2861-0.7753c-0.0366-0.0285-0.0888-0.0366-0.12662-0.0285-0.35298 0.20316-0.41588 0.23043-0.75661 0.34443-0.0761 0.0285-0.20234 0.0741 0.0525 0.21415l1.6799 1.0042c0.16408 0.0879 0.34036 0.13721 0.53005 0.13721 0.18931 0 0.37781-0.0521 0.5289-0.11237l5.0355-2.9334a1.0741 1.0741 0 0 0 0.53004-0.92866v-5.853c0-0.38067-0.20234-0.73524-0.53004-0.92565l-5.0355-2.9353a1.0851 1.0851 0 0 0-0.5289-0.13191zm7.8618 2.673a0.97516 0.97516 0 0 0-0.97117 0.97834 0.97516 0.97516 0 0 0 0.97117 0.9778c0.53065 0 0.97255-0.44446 0.97255-0.9778a0.983 0.983 0 0 0-0.97255-0.97806zm-0.0122 0.16448h1e-3a0.81118 0.81118 0 0 1 0.82127 0.81455c0 0.44475-0.36683 0.82444-0.82127 0.82444-0.44108 0-0.80852-0.36723-0.80852-0.82444 0-0.45676 0.37945-0.81369 0.80763-0.81455zm-0.35299 0.26871v1.1166h0.21578v-0.44174h0.19095c0.0761 0 0.10015 0.0285 0.11318 0.0904 0 0.0285 0.0366 0.29151 0.0366 0.3424h0.22677c-0.0244-0.0521-0.0366-0.20316-0.0525-0.29273-0.0122-0.14005-0.0244-0.23858-0.17628-0.25242 0.0753-0.0285 0.2003-0.0631 0.2003-0.26627 0-0.29232-0.25282-0.29232-0.37904-0.29232zm0.19095 0.17832h0.17506c0.0639 0 0.1653 0 0.1653 0.15349 0 0.0521-0.0244 0.15349-0.1653 0.15349h-0.17506zm-6.3101 0.87656c-1.4392 0-2.2992 0.61016-2.2992 1.639 0 1.1051 0.85872 1.4077 2.2347 1.5471 1.6528 0.16734 1.7793 0.40824 1.7793 0.73801 0 0.57174-0.45391 0.81178-1.5146 0.81178-1.338 0-1.6289-0.32978-1.7301-1.0028 0-0.077-0.0611-0.12621-0.1368-0.12621h-0.65882a0.15264 0.15264 0 0 0-0.15267 0.15348c0 0.86341 0.45509 1.8782 2.6647 1.8782 1.5896 0 2.5098-0.63484 2.5098-1.7531 0-1.0916-0.73267-1.3844-2.2844-1.5877-1.5656-0.20315-1.7292-0.31756-1.7292-0.68556 0-0.30494 0.14005-0.71033 1.2997-0.71033 1.0357 0 1.427 0.22759 1.5787 0.92676a0.14828 0.14828 0 0 0 0.13761 0.11522h0.66899c0.0367 0 0.077-0.0285 0.10301-0.0521a0.20759 0.20759 0 0 0 0.0366-0.11522c-0.10056-1.219-0.89532-1.7775-2.5111-1.7775z" color="#000000" fill="#efefe9" stroke-width=".43611" style="-inkscape-stroke:none"/>
 <path d="m573.76 383.19h61.057v61.057h-61.057z" color="#000000" fill-opacity="0" stroke-width=".72588" style="-inkscape-stroke:none;paint-order:stroke markers fill"/>
 <path d="m604.3 386.75a27.009 27.009 0 0 0-27.009 27.009 27.009 27.009 0 0 0 27.009 27.009 27.009 27.009 0 0 0 14.985-4.5737l-22.153-28.62v16.981h-3.6352v-21.598h4.5444l24.108 31.054a27.009 27.009 0 0 0 9.1606-20.25 27.009 27.009 0 0 0-27.009-27.009zm7.5022 16.205h3.6014v20.584l-3.6014-4.7293zm10.204 31.194-0.0468 0.0366a27.009 27.009 0 0 0 0.0468-0.0366z" color="#000000" fill="#efefe9" stroke-width=".42201" style="-inkscape-stroke:none"/>
 <path d="m464.73 383.29h61.057v61.057h-61.057z" color="#000000" fill-opacity="0" stroke-width=".72588" style="-inkscape-stroke:none;paint-order:stroke markers fill"/>
 <path d="m483.23 386.68c-1.1596 0-2.1738 0.24143-3.0919 0.77298-3.0922 1.7877-4.2038 6.2809-3.1892 12.61 0.1933 1.1113 0.4348 2.2709 0.72471 3.4305-1.1596 0.33832-2.271 0.67677-3.334 1.1116-6.0396 2.3192-9.3247 5.5079-9.3247 9.0834 0 3.5754 3.3334 6.764 9.3247 9.0834 1.0629 0.38637 2.1744 0.77343 3.334 1.1116-0.28992 1.1596-0.53142 2.3193-0.72471 3.4305-1.0146 6.378 0.097 10.871 3.1892 12.61 0.91805 0.53147 1.9323 0.77294 3.0919 0.77294 3.4305 0 7.7302-2.5127 12.031-6.7164 4.3485 4.2035 8.6493 6.7164 12.032 6.7164 1.1596 0 2.1738-0.24143 3.0918-0.77294 3.0922-1.7877 4.2038-6.2809 3.1892-12.61-0.19323-1.1112-0.4348-2.2709-0.72472-3.4305 1.1596-0.33832 2.271-0.67673 3.334-1.1116 6.0396-2.3192 9.3247-5.5079 9.3247-9.0834 0-3.5754-3.2851-6.764-9.3247-9.0834-1.063-0.38637-2.1744-0.77339-3.334-1.1116 0.28992-1.1596 0.53147-2.3192 0.72472-3.4305 1.0146-6.378-0.097-10.871-3.1892-12.61-0.918-0.53151-1.9323-0.77298-3.0918-0.77298-3.3822 0-7.683 2.5127-12.032 6.7164-4.3484-4.2036-8.6484-6.7164-12.031-6.7164zm-0.0482 2.7541c2.899 0 6.5231 2.3679 10.147 5.9434-1.6911 1.836-3.3828 3.9619-5.0257 6.2809-2.8024 0.24143-5.4594 0.67579-7.9716 1.2073-0.28992-1.1113-0.4832-2.1738-0.67649-3.1884-0.82134-5.0734-0.14462-8.6484 1.8364-9.8079 0.48315-0.28988 1.0625-0.43515 1.6907-0.43515zm24.158 0c0.62814 0 1.2076 0.14535 1.6907 0.43514 1.9809 1.1596 2.6577 4.7349 1.8363 9.8079-0.14494 1.0146-0.38653 2.0771-0.67645 3.1884-2.5124-0.57984-5.1695-0.96571-7.9716-1.2073-1.6428-2.3192-3.3344-4.3967-5.0257-6.2809 3.5754-3.5271 7.1995-5.9434 10.147-5.9434zm-12.08 7.9235c1.1596 1.2562 2.271 2.6093 3.334 4.0104-1.1113-0.0485-2.2227-0.0965-3.334-0.0965-1.1112 0-2.2218 0.048-3.3331 0.0965 1.0629-1.4011 2.1735-2.7542 3.3331-4.0104zm0.0491 6.6679c1.8843 0 3.6713 0.048 5.4109 0.19298 1.063 1.5461 2.03 3.0925 2.8997 4.6388 0.918 1.5944 1.7871 3.2372 2.5602 4.8316-0.82138 1.5944-1.6422 3.1889-2.5602 4.8316-0.86969 1.5461-1.885 3.0925-2.9479 4.6388-1.7877 0.14493-3.5756 0.19298-5.4118 0.19298-1.8843 0-3.6713-0.048-5.4109-0.19298-1.063-1.5462-2.03-3.0926-2.8997-4.6388-0.918-1.5944-1.7871-3.2372-2.5602-4.8316 0.77307-1.5944 1.6422-3.2372 2.5602-4.8316 0.86969-1.5461 1.885-3.0925 2.9479-4.6388 1.7877-0.14494 3.5756-0.19298 5.4118-0.19298zm-9.0358 0.53163c-0.57978 0.91804-1.2075 1.8842-1.739 2.8989-0.57978 1.0146-1.1109 2.029-1.6424 2.9953-0.72471-1.6911-1.3048-3.3337-1.8363-4.9763 1.6428-0.38637 3.3817-0.67616 5.2176-0.91776zm17.974 0.048c1.836 0.24143 3.5758 0.53123 5.2185 0.91776-0.53147 1.5944-1.1116 3.2854-1.8363 4.9763-0.53146-1.0146-1.0626-2.029-1.6424-2.9954zm7.8763 1.5459c6.6678 1.9327 10.677 4.8316 10.677 7.5375 0 2.2709-2.8024 4.6864-7.5855 6.4742-0.96636 0.38637-2.0289 0.72522-3.0919 1.0151-0.77302-2.4158-1.7392-4.9767-2.8988-7.5374 1.1596-2.5608 2.1741-5.0734 2.8988-7.4894zm-33.725 0.0485c0.77306 2.4158 1.7392 4.9767 2.8988 7.5375-1.1596 2.5607-2.1741 5.0734-2.8988 7.4894-6.6678-1.9327-10.677-4.8316-10.677-7.5375 0-2.2709 2.754-4.6864 7.5855-6.4742 0.96631-0.38636 2.0288-0.72518 3.0918-1.0151zm16.862 1.9811a5.5079 5.5079 0 0 0-5.507 5.508 5.5079 5.5079 0 0 0 5.507 5.5079 5.5079 5.5079 0 0 0 5.5079-5.5079 5.5079 5.5079 0 0 0-5.5079-5.508zm-12.368 8.6974c0.53151 0.96633 1.0627 1.9807 1.6424 2.9471 0.57978 1.063 1.1592 1.9808 1.7389 2.9471-1.836-0.24143-3.5749-0.53123-5.2176-0.91776 0.53151-1.5944 1.1116-3.2854 1.8363-4.9763zm24.737 0.0485c0.72476 1.6911 1.3048 3.3337 1.8363 4.9763-1.6428 0.38637-3.3825 0.67616-5.2185 0.91775 0.57978-0.918 1.2083-1.8842 1.7398-2.8988 0.57983-1.0147 1.111-2.029 1.6424-2.9954zm-27.298 7.5856c2.5124 0.5798 5.1695 0.96564 7.9716 1.2073 1.6428 2.3191 3.3344 4.3976 5.0257 6.2818-3.5754 3.5271-7.1995 5.9425-10.147 5.9425-0.62814 0-1.2075-0.14453-1.6907-0.43429-1.981-1.1596-2.6577-4.7358-1.8364-9.8088 0.14498-1.0146 0.38657-2.0771 0.67649-3.1883zm29.859 0c0.28992 1.1113 0.48315 2.1737 0.67644 3.1883 0.82138 5.0734 0.14462 8.6493-1.8363 9.8087-0.48316 0.28988-1.0626 0.43433-1.6907 0.43433-2.8989 0-6.5231-2.367-10.147-5.9425 1.6911-1.836 3.3828-3.9627 5.0257-6.2818 2.8024-0.24143 5.4594-0.67576 7.9716-1.2072zm-18.263 1.4976c1.1112 0.0485 2.2218 0.0965 3.3331 0.0965 1.1113 0 2.2227-0.048 3.334-0.0965-1.063 1.4012-2.1744 2.7542-3.334 4.0104-1.1596-1.2562-2.2701-2.6093-3.3331-4.0104z" color="#000000" fill="#efefe9" stroke-width=".48316" style="-inkscape-stroke:none"/>
 <path d="m355.66 383.29h61.057v61.057h-61.057z" color="#000000" fill-opacity="0" stroke-width=".72588" style="-inkscape-stroke:none;paint-order:stroke markers fill"/>
 <path d="m355.66 383.29v61.057h61.057v-61.057zm32.297 52.025c-0.90124 1.831-2.6215 3.0341-4.6149 3.6149-3.0632 0.70344-5.993 0.3025-8.1724-1.0058-1.4585-0.89467-2.5976-2.2722-3.3707-3.8593l4.65-2.8475c0.0409 0.0285 0.16269 0.23858 0.32566 0.52292 0.59299 0.99341 1.1044 1.6968 2.1096 2.1907 0.98767 0.33751 3.1559 0.55227 3.9932-1.1855 0.51131-0.88396 0.3485-3.726 0.3485-6.8701-4.7e-4 -4.9405 0.0248-9.8608 0.0248-14.745h5.7194c0 5.3729 0.0293 10.462 0 15.705 0.011 3.2141 0.2911 6.0791-1.0111 8.48zm23.726-1.6159c-1.988 6.8004-13.072 7.0209-17.501 2.5282-0.93584-1.0574-1.5224-1.6096-2.0807-2.8305 2.3539-1.3542 2.3539-1.3542 4.6442-2.6793 1.2442 1.9125 2.3944 2.9641 4.464 3.3943 2.8077 0.34321 5.6324-0.62169 4.9987-3.6036-0.65107-2.4354-5.749-3.028-9.2185-5.6325-3.5221-2.3654-4.3476-8.1137-1.4531-11.398 0.96465-1.2148 2.6098-2.1213 4.3359-2.557l1.8014-0.23329c3.4588-0.0684 5.6207 0.84366 7.2075 2.6157 0.44162 0.44744 0.80201 0.93005 1.4761 1.9759-1.8424 1.1742-1.8366 1.163-4.4758 2.8716-0.56344-1.2143-1.4991-1.9764-2.4877-2.3076-1.5347-0.46503-3.47 0.0411-3.8714 1.6623-0.13936 0.50012-0.11001 0.9649 0.11139 1.7902 0.62179 1.4181 2.7085 2.0343 4.58 2.8944 5.3883 2.1855 7.2075 4.5287 7.655 7.3178 0.43109 2.4008-0.10369 3.9586-0.18573 4.1913z" color="#000000" fill="#efefe9" stroke-width=".48846" style="-inkscape-stroke:none"/>
</svg>
