<?xml version="1.0" encoding="UTF-8" standalone="no"?>
<svg width="1644.767mm" height="477.69101mm" version="1.1" viewBox="0 0 1644.767 477.69101" id="svg68" xmlns="http://www.w3.org/2000/svg" xmlns:svg="http://www.w3.org/2000/svg">
    <defs id="defs72" />
    <rect x="-0.00079514843" y="-0.00022231472" width="1644.7686" height="349.72592" fill="#efefe9" stop-color="#000000" style="stroke-width:4.07131;paint-order:stroke markers fill" id="rect2" />
    <g alt="Irene VIñas Full Stack Web Developer">
        <path d="m 507.94592,221.9168 h -15.64731 v 13.5328 h 15.16399 v 4.71232 h -15.16399 v 22.59495 h -5.0748 v -45.55238 h 20.72211 z" style="font-size:60.4143px;line-height:1.25;font-family:'Futura LT';fill:#7d4245;stroke-width:1.51038" id="path1069" />
        <path d="m 520.57243,234.36215 v 15.82854 q 0,1.63119 0.0604,2.77906 0.12083,1.14787 0.48332,2.41657 0.4229,1.20829 1.08745,1.99367 0.66456,0.72498 1.87285,1.20829 1.20828,0.48331 2.89988,0.48331 1.6916,0 2.89989,-0.48331 1.20829,-0.48331 1.87284,-1.20829 0.66456,-0.78538 1.02705,-1.99367 0.4229,-1.2687 0.48331,-2.41657 0.12083,-1.14787 0.12083,-2.77906 v -15.82854 h 4.83314 v 16.37227 q 0,12.80783 -11.23706,12.80783 -11.23706,0 -11.23706,-12.80783 v -16.37227 z" style="font-size:60.4143px;line-height:1.25;font-family:'Futura LT';fill:#7d4245;stroke-width:1.51038" id="path1071" />
        <path d="m 551.74615,212.91507 v 49.8418 h -4.83314 v -49.8418 z" style="font-size:60.4143px;line-height:1.25;font-family:'Futura LT';fill:#7d4245;stroke-width:1.51038" id="path1073" />
        <path d="m 565.46016,212.91507 v 49.8418 h -4.83315 v -49.8418 z" style="font-size:60.4143px;line-height:1.25;font-family:'Futura LT';fill:#7d4245;stroke-width:1.51038" id="path1075" />
        <path d="m 617.77881,223.48757 -4.04776,2.59782 q -2.83947,-4.95398 -7.85386,-4.95398 -3.08113,0 -5.31646,1.99368 -2.23532,1.99367 -2.23532,5.0748 0,1.38953 0.60414,2.5374 0.60414,1.14787 1.87284,2.05408 1.2687,0.8458 2.1145,1.32912 0.90622,0.48331 2.5374,1.20828 l 3.02072,1.32912 q 2.59781,1.14787 4.28941,2.17491 1.6916,0.96663 3.32279,2.47699 1.6916,1.44994 2.47699,3.50403 0.8458,2.05409 0.8458,4.6519 0,5.9206 -4.16859,10.02877 -4.16859,4.04776 -10.1496,4.04776 -5.43729,0 -9.30381,-3.20196 -3.8061,-3.26237 -4.89355,-8.57883 l 4.95397,-1.38952 q 0.48331,3.56444 3.02071,6.04143 2.5374,2.41657 6.10185,2.41657 3.74568,0 6.52474,-2.5374 2.83947,-2.59782 2.83947,-6.3435 0,-1.51036 -0.54372,-2.77906 -0.48332,-1.32912 -1.14788,-2.1145 -0.60414,-0.78539 -1.99367,-1.6916 -1.38953,-0.90622 -2.17491,-1.2687 -0.78539,-0.4229 -2.5374,-1.20829 l -2.77906,-1.20829 q -4.83314,-2.17491 -7.37055,-4.71231 -2.5374,-2.5374 -2.5374,-6.94765 0,-5.13521 3.74569,-8.33717 3.74569,-3.26237 9.00173,-3.26237 3.8061,0 6.88723,1.87284 3.08113,1.81243 4.89356,5.19563 z" style="font-size:60.4143px;line-height:1.25;font-family:'Futura LT';fill:#7d4245;stroke-width:1.51038" id="path1077" />
        <path d="m 631.91565,238.8328 v 23.92407 H 627.0825 V 238.8328 h -2.9603 v -4.47065 h 2.9603 v -10.21002 h 4.83315 v 10.21002 h 5.0748 v 4.47065 z" style="font-size:60.4143px;line-height:1.25;font-family:'Futura LT';fill:#7d4245;stroke-width:1.51038" id="path1079" />
        <path d="m 653.12105,238.04742 q -4.04775,0 -6.64557,3.02071 -2.59781,3.02072 -2.59781,7.1893 0,4.41025 2.47698,7.61221 2.5374,3.20195 6.82682,3.20195 4.47066,0 6.94764,-3.08113 2.5374,-3.14154 2.5374,-7.67261 0,-4.41024 -2.59781,-7.31013 -2.59782,-2.9603 -6.94765,-2.9603 z m 14.13695,-3.68527 v 28.39472 h -4.83314 v -3.92693 h -0.12083 q -3.68527,4.71231 -9.78712,4.71231 -6.04143,0 -9.84753,-4.41024 -3.74569,-4.41025 -3.74569,-10.51209 0,-6.28309 3.74569,-10.63292 3.74569,-4.41024 9.90795,-4.41024 5.98101,0 9.7267,4.83314 h 0.12083 v -4.04775 z" style="font-size:60.4143px;line-height:1.25;font-family:'Futura LT';fill:#7d4245;stroke-width:1.51038" id="path1081" />
        <path d="m 697.28388,236.41623 v 6.40392 h -0.12083 q -3.74568,-4.77273 -8.82049,-4.77273 -4.28941,0 -7.1893,3.08113 -2.83947,3.08113 -2.83947,7.43096 0,4.34983 2.71864,7.43095 2.71865,3.08113 7.06848,3.08113 5.4977,0 9.24338,-4.89355 h 0.12083 v 6.46433 q -4.28941,2.89988 -9.00173,2.89988 -6.46433,0 -10.81416,-4.28941 -4.28941,-4.28942 -4.28941,-10.69333 0,-6.28309 4.41024,-10.63292 4.47066,-4.34983 10.75375,-4.34983 4.77273,0 8.76007,2.83947 z" style="font-size:60.4143px;line-height:1.25;font-family:'Futura LT';fill:#7d4245;stroke-width:1.51038" id="path1083" />
        <path d="m 709.54798,212.91507 v 31.95916 l 10.33084,-10.51208 h 6.46433 l -12.14327,12.08286 14.43902,16.31186 h -6.40392 l -11.4183,-12.92866 -1.2687,1.2687 v 11.65996 h -4.83314 v -49.8418 z" style="font-size:60.4143px;line-height:1.25;font-family:'Futura LT';fill:#7d4245;stroke-width:1.51038" id="path1085" />
        <path d="m 753.65031,217.20449 11.96203,34.13407 14.74109,-36.49023 14.74108,36.49023 11.96204,-34.13407 h 5.4977 l -17.45974,47.90853 -14.74108,-36.67148 -14.74109,36.67148 -17.45974,-47.90853 z" style="font-size:60.4143px;line-height:1.25;font-family:'Futura LT';fill:#7d4245;stroke-width:1.51038" id="path1087" />
        <path d="m 836.53867,249.58655 h -22.29288 q 0.0604,3.98734 2.65823,6.7664 2.59781,2.71864 6.64557,2.71864 5.37688,0 8.63925,-5.86018 l 4.10817,2.35615 q -4.28942,7.97469 -13.1099,7.97469 -6.22268,0 -10.08919,-4.16858 -3.8061,-4.22901 -3.8061,-10.45168 0,-6.58516 3.68527,-10.93499 3.68527,-4.41024 10.08919,-4.41024 6.58516,0 10.21001,4.71232 3.62486,4.6519 3.26238,11.29747 z m -22.05122,-4.10817 h 16.97642 q -0.48332,-3.14155 -2.83948,-5.25605 -2.35615,-2.17491 -5.4977,-2.17491 -3.14154,0 -5.67894,2.17491 -2.5374,2.17492 -2.9603,5.25605 z" style="font-size:60.4143px;line-height:1.25;font-family:'Futura LT';fill:#7d4245;stroke-width:1.51038" id="path1089" />
        <path d="m 856.77742,238.04742 q -4.04776,0 -6.64558,3.02071 -2.59781,3.02072 -2.59781,7.1893 0,4.41025 2.47698,7.61221 2.53741,3.20195 6.82682,3.20195 4.47066,0 6.94765,-3.08113 2.5374,-3.14154 2.5374,-7.67261 0,-4.41024 -2.59782,-7.31013 -2.59781,-2.9603 -6.94764,-2.9603 z m -13.83488,24.70945 v -49.8418 h 4.83315 v 25.49483 h 0.12082 q 3.68528,-4.83314 9.72671,-4.83314 6.16226,0 9.90794,4.41024 3.74569,4.34983 3.74569,10.57251 0,6.16225 -3.8061,10.5725 -3.74569,4.41024 -9.78712,4.41024 -6.28309,0 -9.78712,-4.71231 h -0.12082 v 3.92693 z" style="font-size:60.4143px;line-height:1.25;font-family:'Futura LT';fill:#7d4245;stroke-width:1.51038" id="path1091" />
        <path d="m 896.65075,262.75687 v -45.55238 h 8.57883 q 5.67895,0 9.84753,1.14787 4.16859,1.14787 7.91428,4.34983 7.55178,6.52474 7.55178,17.3389 0,10.33085 -7.43096,16.97642 -3.8061,3.3832 -7.97468,4.59148 -4.10817,1.14788 -10.02878,1.14788 z m 5.0748,-4.71232 h 3.68528 q 4.6519,0 8.0351,-0.96663 3.44361,-1.02704 6.3435,-3.74568 5.67894,-5.31646 5.67894,-13.35156 0,-8.45801 -5.9206,-13.65364 -2.89989,-2.59781 -6.28309,-3.50403 -3.32278,-0.90621 -7.85385,-0.90621 h -3.68528 z" style="font-size:60.4143px;line-height:1.25;font-family:'Futura LT';fill:#7d4245;stroke-width:1.51038" id="path1093" />
        <path d="m 962.32105,249.58655 h -22.29288 q 0.0604,3.98734 2.65823,6.7664 2.59781,2.71864 6.64557,2.71864 5.37687,0 8.63925,-5.86018 l 4.10817,2.35615 q -4.28942,7.97469 -13.1099,7.97469 -6.22268,0 -10.08919,-4.16858 -3.8061,-4.22901 -3.8061,-10.45168 0,-6.58516 3.68527,-10.93499 3.68527,-4.41024 10.08919,-4.41024 6.58516,0 10.21001,4.71232 3.62486,4.6519 3.26238,11.29747 z m -22.05122,-4.10817 h 16.97641 q -0.48331,-3.14155 -2.83947,-5.25605 -2.35615,-2.17491 -5.4977,-2.17491 -3.14154,0 -5.67894,2.17491 -2.5374,2.17492 -2.9603,5.25605 z" style="font-size:60.4143px;line-height:1.25;font-family:'Futura LT';fill:#7d4245;stroke-width:1.51038" id="path1095" />
        <path d="m 969.93321,234.36215 8.458,19.09091 8.458,-19.09091 h 5.43729 l -13.89529,30.26756 -13.9557,-30.26756 z" style="font-size:60.4143px;line-height:1.25;font-family:'Futura LT';fill:#7d4245;stroke-width:1.51038" id="path1097" />
        <path d="m 1021.6478,249.58655 h -22.29288 q 0.0604,3.98734 2.65828,6.7664 2.5978,2.71864 6.6455,2.71864 5.3769,0 8.6393,-5.86018 l 4.1081,2.35615 q -4.2894,7.97469 -13.1099,7.97469 -6.2226,0 -10.08915,-4.16858 -3.8061,-4.22901 -3.8061,-10.45168 0,-6.58516 3.68527,-10.93499 3.68528,-4.41024 10.08918,-4.41024 6.5852,0 10.21,4.71232 3.6249,4.6519 3.2624,11.29747 z m -22.05122,-4.10817 h 16.97642 q -0.4833,-3.14155 -2.8395,-5.25605 -2.3561,-2.17491 -5.4977,-2.17491 -3.1415,0 -5.6789,2.17491 -2.5374,2.17492 -2.96032,5.25605 z" style="font-size:60.4143px;line-height:1.25;font-family:'Futura LT';fill:#7d4245;stroke-width:1.51038" id="path1099" />
        <path d="m 1033.0056,212.91507 v 49.8418 h -4.8331 v -49.8418 z" style="font-size:60.4143px;line-height:1.25;font-family:'Futura LT';fill:#7d4245;stroke-width:1.51038" id="path1101" />
        <path d="m 1064.9648,259.19242 q -4.3499,4.34983 -10.5725,4.34983 -6.2227,0 -10.5726,-4.34983 -4.3498,-4.34983 -4.3498,-10.5725 0,-6.28309 4.3498,-10.63292 4.3499,-4.41024 10.5726,-4.41024 6.2226,0 10.5725,4.41024 4.3498,4.34983 4.3498,10.63292 0,6.22267 -4.3498,10.5725 z m -3.3228,-18.06387 q -2.8395,-3.08113 -7.2497,-3.08113 -4.4103,0 -7.2498,3.08113 -2.8394,3.02071 -2.8394,7.43096 0,4.41024 2.8394,7.49137 2.8395,3.02071 7.2498,3.02071 4.4102,0 7.2497,-3.02071 2.8394,-3.08113 2.8394,-7.49137 0,-4.41025 -2.8394,-7.43096 z" style="font-size:60.4143px;line-height:1.25;font-family:'Futura LT';fill:#7d4245;stroke-width:1.51038" id="path1103" />
        <path d="m 1089.5533,238.04742 q -4.0478,0 -6.6456,3.02071 -2.5978,3.02072 -2.5978,7.1893 0,4.41025 2.477,7.61221 2.5374,3.20195 6.8268,3.20195 4.4707,0 6.9477,-3.08113 2.5374,-3.14154 2.5374,-7.67261 0,-4.41024 -2.5979,-7.31013 -2.5978,-2.9603 -6.9476,-2.9603 z m -9.0017,-3.68527 v 4.04775 h 0.1208 q 3.6249,-4.83314 9.7871,-4.83314 6.0414,0 9.7871,4.47066 3.8061,4.41024 3.8061,10.5725 0,6.28309 -3.7457,10.63292 -3.6852,4.28941 -9.9079,4.28941 -6.1623,0 -9.7267,-4.77273 h -0.1208 v 19.93672 h -4.8332 v -44.34409 z" style="font-size:60.4143px;line-height:1.25;font-family:'Futura LT';fill:#7d4245;stroke-width:1.51038" id="path1105" />
        <path d="m 1135.5285,249.58655 h -22.2928 q 0.06,3.98734 2.6582,6.7664 2.5978,2.71864 6.6456,2.71864 5.3768,0 8.6392,-5.86018 l 4.1082,2.35615 q -4.2894,7.97469 -13.1099,7.97469 -6.2227,0 -10.0892,-4.16858 -3.8061,-4.22901 -3.8061,-10.45168 0,-6.58516 3.6853,-10.93499 3.6852,-4.41024 10.0891,-4.41024 6.5852,0 10.2101,4.71232 3.6248,4.6519 3.2623,11.29747 z m -22.0512,-4.10817 h 16.9764 q -0.4833,-3.14155 -2.8394,-5.25605 -2.3562,-2.17491 -5.4977,-2.17491 -3.1416,0 -5.679,2.17491 -2.5374,2.17492 -2.9603,5.25605 z" style="font-size:60.4143px;line-height:1.25;font-family:'Futura LT';fill:#7d4245;stroke-width:1.51038" id="path1107" />
        <path d="m 1146.7656,234.36215 v 3.08113 h 0.1208 q 1.5103,-1.99368 2.779,-2.89989 1.3292,-0.96663 3.5041,-0.96663 1.9936,0 4.3498,1.32911 l -2.2957,4.41025 q -1.8729,-1.2687 -2.8999,-1.2687 -5.5581,0 -5.5581,10.51209 v 14.19736 h -4.8332 v -28.39472 z" style="font-size:60.4143px;line-height:1.25;font-family:'Futura LT';fill:#7d4245;stroke-width:1.51038" id="path1109" />
        <path d="M 507.13795,94.486986 V 171.08736 H 487.22592 V 94.486986 Z" style="font-weight:bold;font-size:101.592px;line-height:1.25;font-family:'Futura LT';fill:#3d1e21;stroke-width:2.53981" id="path1048" />
        <path d="m 559.76255,139.69543 24.0773,31.39193 H 559.0514 l -18.79452,-29.46168 h -0.20318 v 29.46168 H 520.14167 V 94.486986 h 29.76645 q 11.98786,0 19.30248,5.892334 7.31463,5.89234 7.31463,17.67701 0,8.22895 -4.47005,14.22288 -4.36846,5.99393 -12.29263,7.41622 z M 540.0537,109.72579 v 19.09929 h 1.93025 q 13.81651,0 13.81651,-9.54964 0,-9.54965 -13.81651,-9.54965 z" style="font-weight:bold;font-size:101.592px;line-height:1.25;font-family:'Futura LT';fill:#3d1e21;stroke-width:2.53981" id="path1050" />
        <path d="M 632.80703,111.35126 H 609.1361 v 12.80059 h 22.45183 v 16.86427 H 609.1361 v 13.20696 h 23.67093 v 16.86428 H 589.22406 V 94.486986 h 43.58297 z" style="font-weight:bold;font-size:101.592px;line-height:1.25;font-family:'Futura LT';fill:#3d1e21;stroke-width:2.53981" id="path1052" />
        <path d="M 645.09959,171.08736 V 94.486986 h 19.91203 l 36.47153,46.833914 h 0.20319 V 94.486986 h 19.91203 v 76.600374 h -19.91203 l -36.47153,-46.93551 h -0.20319 v 46.93551 z" style="font-weight:bold;font-size:101.592px;line-height:1.25;font-family:'Futura LT';fill:#3d1e21;stroke-width:2.53981" id="path1054" />
        <path d="m 778.18497,111.35126 h -23.67094 v 12.80059 h 22.45184 v 16.86427 h -22.45184 v 13.20696 h 23.67094 v 16.86428 H 734.602 V 94.486986 h 43.58297 z" style="font-weight:bold;font-size:101.592px;line-height:1.25;font-family:'Futura LT';fill:#3d1e21;stroke-width:2.53981" id="path1056" />
        <path d="m 838.93675,94.486986 18.48974,46.529134 18.59134,-46.529134 h 21.6391 L 864.9443,171.08736 H 849.50232 L 817.29765,94.486986 Z" style="font-weight:bold;font-size:101.592px;line-height:1.25;font-family:'Futura LT';fill:#3d1e21;stroke-width:2.53981" id="path1058" />
        <path d="M 922.54695,94.486986 V 171.08736 H 902.63491 V 94.486986 Z" style="font-weight:bold;font-size:101.592px;line-height:1.25;font-family:'Futura LT';fill:#3d1e21;stroke-width:2.53981" id="path1060" />
        <path d="M 935.55066,171.08736 V 94.486986 h 19.91203 l 36.47153,46.833914 h 0.20318 V 94.486986 h 19.912 v 76.600374 h -19.912 l -36.47153,-46.93551 h -0.20318 v 46.93551 z m 26.41392,-84.01659 h -8.33055 l -0.10159,-1.117512 q 0,-5.282784 2.23502,-9.041688 3.35254,-5.689152 9.04169,-5.689152 2.74299,0 8.63532,1.727064 5.99393,1.727064 7.92418,1.727064 1.72706,0 2.5398,-0.812736 0.81273,-0.914328 1.52388,-2.844576 h 8.63532 q -0.50796,6.298704 -3.8605,11.17512 -3.35253,4.876416 -9.34646,4.876416 -2.64139,0 -7.92418,-1.828656 -5.18119,-1.930248 -7.51781,-1.930248 -1.11751,0 -1.93024,0.711144 -0.71115,0.609552 -0.91433,1.117512 -0.20319,0.50796 -0.60955,1.930248 z" style="font-weight:bold;font-size:101.592px;line-height:1.25;font-family:'Futura LT';fill:#3d1e21;stroke-width:2.53981" id="path1062" />
        <path d="m 1071.9886,157.7788 h -27.4299 l -5.2828,13.30856 h -21.1311 l 29.4617,-76.600374 h 21.7407 l 28.8521,76.600374 h -21.2327 z m -5.3844,-15.2388 -8.1274,-24.38208 h -0.2031 l -8.229,24.38208 z" style="font-weight:bold;font-size:101.592px;line-height:1.25;font-family:'Futura LT';fill:#3d1e21;stroke-width:2.53981" id="path1064" />
        <path d="m 1154.3795,98.753851 -7.9241,15.441979 q -6.0956,-5.0796 -13.207,-5.0796 -3.1494,0 -5.8923,1.72707 -2.6414,1.72706 -2.6414,4.67323 0,2.03184 1.6254,3.65731 1.7271,1.62548 3.1494,2.23503 1.5239,0.60955 4.0637,1.42229 l 5.0796,1.52388 q 8.9401,2.64139 13.9181,7.5178 4.978,4.77483 4.978,13.41015 0,13.9181 -7.9242,20.62317 -8.5337,7.21304 -21.7407,7.21304 -14.426,0 -26.9219,-8.73692 l 8.5338,-16.05153 q 9.0417,7.92417 17.677,7.92417 3.8605,0 6.705,-1.93024 2.9462,-2.03184 2.9462,-5.79075 0,-5.18119 -9.6512,-8.02577 -0.3048,-0.10159 -2.4382,-0.71114 -5.486,-1.52388 -8.6354,-2.84458 -3.1493,-1.32069 -6.2987,-3.65731 -3.1493,-2.43821 -4.47,-6.09552 -1.3207,-3.65731 -1.3207,-9.04169 0,-11.58149 7.4162,-18.591333 7.4162,-7.111441 18.9977,-7.111441 5.7908,0 12.2927,1.727064 6.6034,1.727064 11.683,4.571641 z" style="font-weight:bold;font-size:101.592px;line-height:1.25;font-family:'Futura LT';fill:#3d1e21;stroke-width:2.53981" id="path1066" />
    </g>
    <rect x="-0.00079514843" y="349.72168" width="1644.7686" height="127.96957" fill="#642f32" stop-color="#000000" style="stroke-width:4.07131;-inkscape-stroke:none;paint-order:stroke markers fill" id="rect14" />
    <a alt="JavaScript" href="https://developer.mozilla.org/en-US/docs/Web/JavaScript" target="_blank" rel="noreferrer">
        <g id="JavaScript">
            <rect style="fill:#000000;stroke-width:0.264583;-inkscape-stroke:none;paint-order:stroke markers fill;stop-color:#000000;fill-opacity:0" id="rect1361-3" width="61.057079" height="61.057129" x="355.6517" y="383.29065" />
            <path d="m 355.65169,383.29066 v 61.05713 h 61.05708 v -61.05713 z m 32.29674,52.02544 c -0.90126,1.83104 -2.62156,3.0341 -4.61488,3.6149 -3.06316,0.70341 -5.99295,0.30236 -8.17241,-1.00581 -1.45853,-0.89465 -2.59756,-2.27218 -3.37068,-3.85928 l 4.64999,-2.8475 c 0.0409,0.0265 0.16267,0.23849 0.32564,0.5229 0.59299,0.99341 1.10435,1.69686 2.10962,2.19069 0.98766,0.33751 3.15591,0.55227 3.99322,-1.18545 0.5113,-0.884 0.34848,-3.72598 0.34848,-6.87006 -5e-4,-4.94053 0.0265,-9.86077 0.0265,-14.74536 h 5.71941 c 0,5.37291 0.0302,10.4616 0,15.70476 0.0113,3.21404 0.29103,6.07911 -1.01113,8.47995 z m 23.72597,-1.6159 c -1.98804,6.80037 -13.07177,7.02094 -17.50119,2.52813 -0.93585,-1.05736 -1.52244,-1.60963 -2.08075,-2.83049 2.35385,-1.35421 2.35385,-1.35421 4.64421,-2.67931 1.24419,1.91252 2.39441,2.9641 4.46401,3.39428 2.8077,0.34318 5.63244,-0.62169 4.99869,-3.60363 -0.65106,-2.43542 -5.74904,-3.02801 -9.2185,-5.63245 -3.52215,-2.36546 -4.34767,-8.11368 -1.45316,-11.39795 0.96465,-1.21485 2.60977,-2.1213 4.33588,-2.55696 l 1.8014,-0.2332 c 3.45876,-0.0684 5.62065,0.84363 7.20749,2.61566 0.44164,0.44746 0.80202,0.93007 1.4761,1.97587 -1.84245,1.17422 -1.83659,1.163 -4.4758,2.87165 -0.56345,-1.21429 -1.49907,-1.97643 -2.48769,-2.30756 -1.53467,-0.46503 -3.47002,0.0412 -3.87137,1.66228 -0.13946,0.50015 -0.10998,0.96492 0.1115,1.79018 0.62177,1.41812 2.70845,2.03429 4.58003,2.8944 5.38825,2.18548 7.20749,4.52875 7.65495,7.31779 0.43109,2.40087 -0.10356,3.95864 -0.18558,4.19131 z" fill="#efefe9" stroke-width="0.488455" id="path60" />
        </g>
    </a>
    <a alt="React.js" href="https://reactjs.org/" target="_blank" rel="noreferrer">
        <g id="React">
            <rect style="fill:#000000;stroke-width:0.264583;-inkscape-stroke:none;paint-order:stroke markers fill;stop-color:#000000;fill-opacity:0" id="rect1361" width="61.057079" height="61.057129" x="464.71802" y="383.15649" />
            <path d="m 483.21551,386.67625 c -1.1596,0 -2.17384,0.24151 -3.09189,0.77295 -3.09222,1.78772 -4.20382,6.28095 -3.1892,12.61038 0.19313,1.1113 0.43479,2.2709 0.72472,3.4305 -1.1596,0.33827 -2.27104,0.67676 -3.33396,1.1116 -6.03958,2.3192 -9.32474,5.50795 -9.32474,9.08343 0,3.5754 3.33343,6.76401 9.32474,9.08339 1.06292,0.38654 2.17436,0.77345 3.33396,1.1116 -0.28989,1.1596 -0.53144,2.31927 -0.72472,3.4305 -1.01462,6.378 0.0971,10.87115 3.1892,12.61038 0.91805,0.53147 1.93229,0.77291 3.09189,0.77291 3.43045,0 7.73023,-2.51271 12.03062,-6.71635 4.3485,4.20353 8.64927,6.71635 12.03149,6.71635 1.15956,0 2.17384,-0.24151 3.09181,-0.77291 3.09226,-1.78776 4.20386,-6.28091 3.1892,-12.61038 -0.19313,-1.11123 -0.43479,-2.2709 -0.72468,-3.4305 1.15959,-0.33827 2.271,-0.67676 3.334,-1.1116 6.03957,-2.31916 9.32474,-5.50791 9.32474,-9.08339 0,-3.5754 -3.28509,-6.76405 -9.32474,-9.08343 -1.063,-0.38654 -2.17441,-0.77337 -3.334,-1.1116 0.28989,-1.1596 0.53144,-2.3192 0.72468,-3.4305 1.01466,-6.378 -0.0971,-10.87115 -3.1892,-12.61038 -0.91797,-0.53151 -1.93225,-0.77295 -3.09181,-0.77295 -3.38215,0 -7.68307,2.51271 -12.03149,6.71635 -4.34846,-4.20352 -8.6484,-6.71635 -12.03062,-6.71635 z m -0.0484,2.75404 c 2.89897,0 6.52313,2.36787 10.14668,5.94339 -1.69108,1.83602 -3.38276,3.9619 -5.02568,6.28091 -2.80237,0.24151 -5.45942,0.67581 -7.9716,1.20729 -0.28989,-1.11126 -0.48318,-2.17372 -0.6765,-3.18834 -0.82133,-5.07338 -0.14475,-8.6484 1.83636,-9.80789 0.48318,-0.28989 1.06254,-0.43514 1.6907,-0.43514 z m 24.15826,0 c 0.62816,0 1.20756,0.14513 1.69074,0.43517 1.98093,1.1596 2.65769,4.73493 1.83632,9.80786 -0.14513,1.01461 -0.38653,2.07708 -0.67646,3.18837 -2.51244,-0.57985 -5.16953,-0.96571 -7.97156,-1.20729 -1.64277,-2.3192 -3.33445,-4.39674 -5.02571,-6.28095 3.57539,-3.52706 7.19947,-5.94339 10.14667,-5.94339 z m -12.07956,7.92349 c 1.15959,1.25624 2.27104,2.60928 3.334,4.01042 -1.1113,-0.0484 -2.22271,-0.0964 -3.334,-0.0964 -1.11126,0 -2.22184,0.048 -3.3331,0.0964 1.06296,-1.40114 2.17354,-2.75418 3.3331,-4.01042 z m 0.0491,6.66785 c 1.88432,0 3.67129,0.048 5.41085,0.19314 1.06299,1.54609 2.03003,3.09249 2.8997,4.63877 0.91801,1.59447 1.78711,3.23721 2.56014,4.83157 -0.82137,1.59447 -1.64213,3.18891 -2.56014,4.83157 -0.86967,1.54609 -1.88497,3.09253 -2.94793,4.63877 -1.78771,0.14476 -3.57554,0.19314 -5.41172,0.19314 -1.88432,0 -3.67132,-0.048 -5.41089,-0.19314 -1.06295,-1.54613 -2.02998,-3.09253 -2.89969,-4.63877 -0.91797,-1.59444 -1.78707,-3.23721 -2.56014,-4.83157 0.77307,-1.59444 1.64217,-3.23721 2.56014,-4.83157 0.86971,-1.54609 1.885,-3.09249 2.94792,-4.63877 1.78776,-0.14514 3.57559,-0.19314 5.41176,-0.19314 z m -9.03576,0.53167 c -0.57978,0.91801 -1.20749,1.88417 -1.73893,2.89883 -0.57978,1.01465 -1.11095,2.029 -1.64247,2.99532 -0.72468,-1.69108 -1.3048,-3.33367 -1.83632,-4.97629 1.64277,-0.38653 3.38174,-0.67616 5.21764,-0.91775 z m 17.97356,0.0484 c 1.83602,0.24151 3.57577,0.53117 5.21851,0.91771 -0.53148,1.59447 -1.11156,3.28536 -1.83633,4.97628 -0.53147,-1.01461 -1.06261,-2.02896 -1.64243,-2.99532 z m 7.87627,1.5459 c 6.66785,1.93267 10.67748,4.83157 10.67748,7.53745 0,2.27086 -2.80237,4.68644 -7.58556,6.47416 -0.96635,0.38653 -2.02889,0.72525 -3.09184,1.0151 -0.77303,-2.41584 -1.73923,-4.97674 -2.89883,-7.53745 1.1596,-2.56074 2.1741,-5.07334 2.89883,-7.48933 z m -33.72479,0.0484 c 0.77307,2.41584 1.73919,4.97674 2.89883,7.53745 -1.15964,2.56075 -2.17406,5.07335 -2.89883,7.48938 -6.66784,-1.93271 -10.67743,-4.83161 -10.67743,-7.53745 0,-2.27086 2.75403,-4.68644 7.58551,-6.4742 0.96632,-0.38653 2.02886,-0.72518 3.09185,-1.0151 z m 16.86219,1.98108 a 5.5079268,5.5079328 0 0 0 -5.50704,5.50792 5.5079268,5.5079328 0 0 0 5.50704,5.50795 5.5079268,5.5079328 0 0 0 5.50791,-5.50795 5.5079268,5.5079328 0 0 0 -5.50791,-5.50792 z m -12.36813,8.69735 c 0.53151,0.96636 1.06269,1.98078 1.64247,2.9471 0.57978,1.06295 1.15914,1.98074 1.73892,2.94705 -1.83602,-0.24151 -3.57494,-0.53118 -5.2176,-0.91771 0.53151,-1.59447 1.11159,-3.28536 1.83628,-4.97629 z m 24.73714,0.0484 c 0.72476,1.69108 1.30484,3.33366 1.83632,4.97629 -1.64277,0.38653 -3.38257,0.67616 -5.21851,0.91774 0.57978,-0.91801 1.20831,-1.88417 1.73979,-2.89882 0.57982,-1.01466 1.11096,-2.02901 1.64243,-2.99532 z m -27.29831,7.58557 c 2.51241,0.57978 5.16953,0.96563 7.9716,1.20722 1.64274,2.31919 3.33445,4.39756 5.02568,6.28181 -3.5754,3.52706 -7.19948,5.94252 -10.14668,5.94252 -0.62816,0 -1.20752,-0.14437 -1.6907,-0.43434 -1.98096,-1.15956 -2.65769,-4.73583 -1.83636,-9.80872 0.14514,-1.01462 0.38661,-2.07708 0.6765,-3.18834 z m 29.85947,0 c 0.28989,1.11122 0.48313,2.17368 0.67646,3.1883 0.82137,5.07334 0.14475,8.64927 -1.83633,9.80876 -0.48317,0.28989 -1.06257,0.43431 -1.69073,0.43431 -2.89894,0 -6.52313,-2.36698 -10.14668,-5.94253 1.69108,-1.83602 3.38276,-3.96277 5.02568,-6.28177 2.80237,-0.24152 5.45942,-0.67579 7.9716,-1.20726 z m -18.263,1.49764 c 1.11126,0.0484 2.22184,0.0964 3.3331,0.0964 1.11129,0 2.2227,-0.0484 3.334,-0.0964 -1.063,1.40115 -2.17441,2.75418 -3.334,4.01038 -1.15956,-1.2562 -2.27014,-2.60923 -3.3331,-4.01038 z" fill="#efefe9" stroke-width="0.483157" id="path54" />
        </g>
    </a>
    <a alt="Next.js" href="https://nextjs.org/docs" target="_blank" rel="noreferrer">
        <g id="Next">
            <rect style="fill:#000000;stroke-width:0.264583;-inkscape-stroke:none;paint-order:stroke markers fill;stop-color:#000000;fill-opacity:0" id="rect1361-6" width="61.057079" height="61.057129" x="573.75586" y="383.23294" />
            <path d="m 604.28441,386.75275 a 27.008866,27.008895 0 0 0 -27.0089,27.00863 27.008866,27.008895 0 0 0 27.0089,27.00889 27.008866,27.008895 0 0 0 14.98482,-4.57372 L 597.11585,407.5761 v 16.98103 h -3.63515 v -21.59785 h 4.54436 l 24.10758,31.05398 a 27.008866,27.008895 0 0 0 9.16064,-20.24995 27.008866,27.008895 0 0 0 -27.00887,-27.00863 z m 7.50214,16.20517 h 3.6014 v 20.5844 l -3.6014,-4.72929 z m 10.20424,31.19386 -0.0469,0.034 a 27.008866,27.008895 0 0 0 0.0469,-0.034 z" fill="#efefe9" stroke-width="0.422008" id="path50" />
        </g>
    </a>
    <a alt="Node.js" href="https://nodejs.org/en/" target="_blank" rel="noreferrer">
        <g id="Node">
            <rect style="fill:#000000;stroke-width:0.264583;-inkscape-stroke:none;paint-order:stroke markers fill;stop-color:#000000;fill-opacity:0" id="rect1361-9" width="61.057079" height="61.057129" x="682.82318" y="385.80521" />
            <path d="m 722.97686,396.62943 a 0.30963377,0.3096341 0 0 0 -0.15269,0.0412 0.32927738,0.32927774 0 0 0 -0.16365,0.27817 v 8.25552 a 0.24597037,0.24597064 0 0 1 -0.11566,0.20297 0.23942706,0.23942732 0 0 1 -0.22677,0 l -1.33712,-0.77315 a 0.64807451,0.64807521 0 0 0 -0.64464,0 l -5.35015,3.11117 a 0.64544074,0.64544144 0 0 0 -0.3292,0.55831 v 6.2094 c 0,0.22752 0.127,0.445 0.3292,0.55967 l 5.35125,3.11173 a 0.64807451,0.64807521 0 0 0 0.64377,0 l 5.35124,-3.11173 c 0.20221,-0.11528 0.3292,-0.33071 0.3292,-0.55967 v -15.4806 c 0,-0.24151 -0.12699,-0.45789 -0.3292,-0.57094 l -3.19238,-1.78987 a 0.36458648,0.36458687 0 0 0 -0.16365,-0.0412 z m -31.56966,7.74827 c -0.10016,0 -0.20069,0.034 -0.28876,0.0877 l -5.35124,3.10016 a 0.65111983,0.65112053 0 0 0 -0.32844,0.57067 l 0.0113,8.33017 c 0,0.11528 0.062,0.22753 0.16366,0.28082 a 0.28609436,0.28609467 0 0 0 0.31559,0 l 3.18138,-1.8288 a 0.64544074,0.64544144 0 0 0 0.32731,-0.55915 v -3.89855 c 0,-0.22753 0.12661,-0.44526 0.3292,-0.55941 l 1.34978,-0.78712 a 0.60620838,0.60620904 0 0 1 0.32806,-0.0877 c 0.11301,0 0.22753,0.0265 0.31559,0.0877 l 1.35024,0.78712 c 0.2022,0.11528 0.3292,0.33071 0.3292,0.55941 v 3.89912 c 0,0.22753 0.12586,0.44444 0.3273,0.55801 l 3.15561,1.82911 a 0.30702744,0.30702777 0 0 0 0.32806,0 0.3157518,0.31575215 0 0 0 0.16404,-0.28044 v -8.33044 c 0,-0.22753 -0.12662,-0.44447 -0.3292,-0.55914 l -5.33832,-3.11143 a 0.76887174,0.76887258 0 0 0 -0.28914,-0.0877 h -0.0525 z m 43.90454,0.0907 v 0.001 l -8.7e-4,8.3e-4 c -0.10998,0 -0.22035,0.0265 -0.32088,0.085 l -5.35152,3.10954 c -0.2022,0.11527 -0.3273,0.3307 -0.3273,0.55993 v 6.21023 c 0,0.22753 0.12548,0.44448 0.3273,0.55888 l 5.31312,3.04805 a 0.62365715,0.62365783 0 0 0 0.63152,0 l 3.21842,-1.8025 a 0.3157518,0.31575215 0 0 0 0.16365,-0.28082 0.3157518,0.31575215 0 0 0 -0.16365,-0.27855 l -5.37593,-3.11196 a 0.33144476,0.33144512 0 0 1 -0.16365,-0.2812 v -1.94294 a 0.31399595,0.31399629 0 0 1 0.16365,-0.27818 l 1.68076,-0.96514 a 0.30746639,0.30746673 0 0 1 0.32806,0 l 1.6769,0.96514 a 0.3323227,0.33232306 0 0 1 0.16404,0.27818 v 1.52376 c 0,0.11527 0.0624,0.22752 0.16365,0.2793 a 0.30702744,0.30702777 0 0 0 0.3292,0 l 3.17975,-1.86641 a 0.63674378,0.63674447 0 0 0 0.31673,-0.55831 v -1.51113 c 0,-0.22791 -0.12699,-0.44444 -0.31673,-0.55941 l -5.31228,-3.09661 a 0.65372615,0.65372686 0 0 0 -0.32277,-0.0877 z m -29.23769,0.0265 a 0.5992124,0.59921305 0 0 0 -0.29707,0.0797 l -5.30764,3.08209 1.857,3.40608 3.81075,-6.56195 a 0.87224761,0.87224855 0 0 0 -0.062,0 h -8.7e-4 z m 0.2468,0.0658 3.75368,6.46047 1.76409,-3.24669 a 0.58439739,0.58439803 0 0 0 -0.10885,-0.0877 l -2.7349,-1.58876 -2.63282,-1.521 c -0.0113,0 -0.0265,0 -0.0408,-0.0265 z m -0.10885,0.0265 -3.8264,6.5872 3.79511,6.96254 c 0.0113,0 0.0265,0 0.0302,-0.0264 l 3.80251,-6.99845 -3.80277,-6.54468 z m -5.83382,3.1279 a 0.58875958,0.58876021 0 0 0 -0.25058,0.48972 v 6.23684 c 0,0.0986 0.0265,0.19766 0.0733,0.28233 l 2.06196,-3.55122 z m 11.53539,0.14816 -1.77539,3.26669 1.88311,3.24205 v -6.16801 c 0,-0.12057 -0.0408,-0.24152 -0.10847,-0.34054 z m 8.74663,1.24967 c 0.0265,0 0.0586,0 0.0831,0.0265 l 1.82865,1.0675 c 0.0525,0.0265 0.0764,0.0877 0.0764,0.13984 v 2.13419 c 0,0.0631 -0.0265,0.11527 -0.0764,0.13984 l -1.82994,1.06613 a 0.18796686,0.18796707 0 0 1 -0.1644,0 l -1.82945,-1.0653 c -0.0525,-0.0265 -0.0767,-0.0907 -0.0767,-0.13984 v -2.13419 c 0,-0.0631 0.0265,-0.11263 0.0767,-0.13984 l 1.82945,-1.06749 a 0.18534954,0.18534974 0 0 1 0.0831,-0.0265 z m 14.63393,0.86339 a 0.11338973,0.11338986 0 0 0 -0.0635,0.0265 l -1.02316,0.59671 a 0.13083578,0.13083592 0 0 0 -0.062,0.11263 v 1.19509 c 0,0.0522 0.0265,0.0907 0.062,0.11528 l 1.02316,0.59701 a 0.11426216,0.11426229 0 0 0 0.12661,0 l 1.02229,-0.59728 a 0.13432278,0.13432292 0 0 0 0.0627,-0.11263 v -1.19425 a 0.13214444,0.13214459 0 0 0 -0.0627,-0.11263 l -1.02229,-0.59781 a 0.11338973,0.11338986 0 0 0 -0.0624,-0.0265 v -8.3e-4 z m -25.21597,1.26475 -3.71226,6.83166 h 0.004 l 5.35866,-3.11226 c 0.15005,-0.085 0.24529,-0.23055 0.27817,-0.39424 l -1.93028,-3.32267 z m -7.75537,0.0412 -2.05626,3.54025 c 0.0408,0.0522 0.0945,0.0986 0.1527,0.13455 l 5.30049,3.07987 0.0586,0.0302 h 9.8e-4 a 0.6005293,0.60052995 0 0 0 0.13115,0.0574 c 0.0113,0 0.0265,0.0265 0.0408,0.0265 0.0265,0 0.0525,0.0265 0.0775,0.0265 0.0113,7.9e-4 0.0265,7.9e-4 0.034,7.9e-4 l -3.74106,-6.86454 z m 10.6893,5.84123 c -0.18633,0 -0.3719,0.0465 -0.53008,0.13153 l -5.03709,2.9353 a 1.071537,1.0715381 0 0 0 -0.53008,0.92678 v 5.85249 c 0,0.38132 0.20183,0.7369 0.53008,0.92758 l 1.32624,0.76161 c 0.64331,0.31748 0.87008,0.31597 1.16009,0.31597 0.94639,0 1.48977,-0.58356 1.48977,-1.58688 v -5.77565 a 0.15525858,0.15525875 0 0 0 -0.1508,-0.15345 h -0.64335 a 0.15525858,0.15525875 0 0 0 -0.15345,0.15345 v 5.77785 c 0,0.44473 -0.46507,0.88917 -1.20937,0.50838 l -1.3764,-0.79975 c -0.0525,-0.0265 -0.0756,-0.0907 -0.0756,-0.13984 v -5.85469 c 0,-0.0522 0.0265,-0.11527 0.0756,-0.13984 l 5.03494,-2.92018 c 0.034,-0.0265 0.1013,-0.0265 0.1527,0 l 5.03463,2.91991 c 0.0525,0.0265 0.0767,0.0767 0.0767,0.13985 v 5.85468 c 0,0.0631 -0.0265,0.11528 -0.0767,0.13985 l -5.03603,2.93363 c -0.034,0.0265 -0.10129,0.0265 -0.15269,0 l -1.2861,-0.77529 c -0.034,-0.0265 -0.0888,-0.034 -0.12662,-0.0265 -0.35301,0.20296 -0.41586,0.23055 -0.75662,0.34432 -0.0763,0.0265 -0.20221,0.0741 0.0525,0.21392 l 1.67989,1.00411 c 0.16403,0.0877 0.34016,0.13719 0.53004,0.13719 0.18936,0 0.37796,-0.0521 0.52891,-0.11263 l 5.03543,-2.93341 a 1.0741433,1.0741445 0 0 0 0.53008,-0.92867 v -5.85302 c 0,-0.38052 -0.2022,-0.73527 -0.53008,-0.92568 l -5.03543,-2.9353 a 1.0850625,1.0850637 0 0 0 -0.52891,-0.13153 z m 7.86184,2.67304 a 0.97515708,0.97515814 0 0 0 -0.97119,0.97833 0.97515708,0.97515814 0 0 0 0.97119,0.97777 c 0.53065,0 0.97255,-0.44444 0.97255,-0.97777 a 0.98300354,0.9830046 0 0 0 -0.97255,-0.97807 z m -0.0113,0.16441 h 9.9e-4 a 0.81117682,0.8111777 0 0 1 0.82129,0.81456 c 0,0.4447 -0.36662,0.82443 -0.82129,0.82443 -0.44104,0 -0.80848,-0.36699 -0.80848,-0.82443 0,-0.45683 0.3795,-0.81373 0.80761,-0.81456 z m -0.353,0.26872 v 1.11659 h 0.21581 v -0.44171 h 0.19086 c 0.0764,0 0.10016,0.0264 0.11301,0.0907 0,0.0265 0.034,0.29178 0.034,0.34243 h 0.22677 c -0.0265,-0.0522 -0.034,-0.20296 -0.0525,-0.29254 -0.0113,-0.13984 -0.0265,-0.23886 -0.1765,-0.25247 0.0756,-0.0265 0.20031,-0.0631 0.20031,-0.26608 0,-0.29216 -0.25285,-0.29216 -0.37893,-0.29216 z m 0.19086,0.1784 h 0.17499 c 0.0639,0 0.16517,0 0.16517,0.15345 0,0.0521 -0.0265,0.15382 -0.16517,0.15382 h -0.17499 z m -6.31008,0.87655 c -1.43924,0 -2.2992,0.61016 -2.2992,1.63899 0,1.1051 0.85867,1.40769 2.23465,1.54708 1.65279,0.16743 1.77933,0.40823 1.77933,0.73799 0,0.57177 -0.45392,0.81181 -1.51465,0.81181 -1.33795,0 -1.62886,-0.32958 -1.73008,-1.00275 0,-0.0767 -0.0608,-0.12624 -0.13682,-0.12624 h -0.65885 a 0.15264129,0.15264146 0 0 0 -0.15269,0.15383 c 0,0.86336 0.45509,1.8782 2.66468,1.8782 1.58964,0 2.5098,-0.63485 2.5098,-1.7531 0,-1.09164 -0.73266,-1.3844 -2.28435,-1.58767 -1.56563,-0.20296 -1.72925,-0.31748 -1.72925,-0.68561 0,-0.305 0.13985,-0.71032 1.29971,-0.71032 1.0357,0 1.42696,0.22753 1.57871,0.92678 a 0.14827907,0.14827923 0 0 0 0.13757,0.11527 h 0.66902 c 0.034,0 0.0767,-0.0265 0.10318,-0.0521 a 0.20759124,0.20759147 0 0 0 0.034,-0.11528 c -0.10054,-1.21897 -0.89534,-1.77755 -2.51116,-1.77755 z" fill="#efefe9" stroke-width="0.436109" id="path46" />
        </g>
    </a>
    <a alt="Tailwind" href="https://tailwindcss.com/" target="_blank" rel="noreferrer">
        <g id="Tailwind">
            <rect style="fill:#000000;stroke-width:0.264583;-inkscape-stroke:none;paint-order:stroke markers fill;stop-color:#000000;fill-opacity:0" id="rect1361-0" width="61.057079" height="61.057129" x="791.85321" y="383.18771" />
            <path d="m 822.38177,396.56117 c -7.62509,0 -12.38893,3.81076 -14.29649,11.43612 2.85846,-3.81159 6.1954,-5.24067 10.00668,-4.28785 2.17614,0.5424 3.73149,2.12047 5.4536,3.86919 2.80305,2.84448 6.04755,6.13755 13.13266,6.13755 7.62452,0 12.38892,-3.81132 14.29649,-11.43805 -2.85903,3.81352 -6.19541,5.2426 -10.00725,4.28978 -2.17577,-0.54293 -3.72927,-2.12021 -5.45356,-3.86893 -2.80117,-2.84474 -6.04483,-6.13781 -13.13244,-6.13781 z m -14.29649,17.15501 c -7.62453,0 -12.38893,3.81154 -14.29649,11.43827 2.85846,-3.81374 6.19484,-5.24286 10.00672,-4.28977 2.17621,0.54296 3.73145,2.1202 5.45356,3.86892 2.80305,2.84451 6.04755,6.13781 13.1327,6.13781 7.62448,0 12.38888,-3.81102 14.29645,-11.43638 -2.85899,3.81158 -6.19541,5.24097 -10.00725,4.28788 -2.17577,-0.5424 -3.72927,-2.12047 -5.45356,-3.86892 -2.80117,-2.84452 -6.0448,-6.13781 -13.13244,-6.13781 z" fill="#efefe9" stroke-width="0.446756" id="path42" />
        </g>
    </a>
    <a alt="Laravel" href="https://laravel.com/" target="_blank" rel="noreferrer">
        <g id="Laravel">
            <rect style="fill:#000000;stroke-width:0.264583;-inkscape-stroke:none;paint-order:stroke markers fill;stop-color:#000000;fill-opacity:0" id="rect1361-8" width="61.057079" height="61.057129" x="900.88977" y="383.30695" />
            <path d="m 916.33742,387.60915 c -0.082,0.0302 -2.38976,1.3468 -5.12709,2.92019 -3.31691,1.90677 -5.02035,2.91118 -5.11143,3.00556 -0.0779,0.0933 -0.13985,0.19767 -0.17991,0.31181 -0.0684,0.2332 -0.0737,34.07455 -0.004,34.31598 0.0265,0.0934 0.10658,0.2332 0.18104,0.30992 0.17915,0.18936 19.98132,11.57468 20.22192,11.62982 0.11188,0.0265 0.23736,0.0265 0.36133,-0.0265 0.26986,-0.0688 20.02081,-11.4287 20.19667,-11.61417 0.0714,-0.0797 0.15421,-0.21959 0.18104,-0.31256 0.034,-0.10961 0.0469,-1.8804 0.0469,-5.60668 v -5.4448 l 4.81459,-2.76518 c 4.53971,-2.61018 4.81762,-2.77342 4.93422,-2.95257 l 0.11868,-0.192 v -5.86486 c 0,-6.3839 0.0113,-6.0245 -0.24,-6.2555 -0.068,-0.0605 -2.38066,-1.40936 -5.14466,-3.00114 l -5.02092,-2.88757 h -0.5582 l -4.91199,2.8209 c -2.70426,1.55531 -5.00281,2.8851 -5.11476,2.95752 -0.11188,0.0741 -0.2453,0.21127 -0.29972,0.30916 l -0.099,0.17273 -0.0265,5.52462 -0.0265,5.52685 -4.0563,2.33609 c -2.23117,1.28263 -4.0884,2.34434 -4.12789,2.3545 -0.0714,0.0265 -0.0767,-0.50619 -0.0767,-10.66187 v -10.68879 l -0.10658,-0.18369 c -0.13417,-0.22488 0.46681,0.13455 -5.56113,-3.33147 -5.05493,-2.90676 -4.93368,-2.84614 -5.27358,-2.71881 z m 4.6467,4.23218 c 2.11454,1.21315 3.84477,2.21703 3.84477,2.22936 0,0.0265 -1.85424,1.08423 -4.12022,2.38688 l -4.12294,2.36709 -4.1153,-2.36682 c -2.26122,-1.30292 -4.11417,-2.37453 -4.11417,-2.38715 0,-0.0265 1.84978,-1.08398 4.11145,-2.3833 l 4.10566,-2.36191 0.28271,0.15345 c 1.37836,0.78331 2.75422,1.57013 4.12763,2.36138 z m 29.42701,5.44479 c 2.22622,1.28202 4.0681,2.34131 4.08537,2.35858 0.0469,0.0412 -8.11915,4.73614 -8.23083,4.73123 -0.11188,0 -8.17705,-4.65412 -8.17377,-4.71063 0.004,-0.0658 8.11862,-4.73315 8.20094,-4.72052 0.034,0.0265 1.89169,1.06367 4.11829,2.34134 z m -38.5794,0.67764 3.92462,2.25955 0.0265,11.18754 0.0265,11.18977 0.0956,0.1508 c 0.0525,0.0797 0.14438,0.18935 0.21354,0.23887 0.065,0.0465 2.24886,1.29192 4.85246,2.7611 l 4.73012,2.67107 v 4.73315 c 0,2.59729 -0.0264,4.72846 -0.0408,4.72846 -0.0151,0 -4.10593,-2.33995 -9.08407,-5.20476 l -9.04948,-5.20446 -0.0113,-15.99914 -0.004,-15.99473 0.2007,0.10961 c 0.11678,0.0631 1.9737,1.12838 4.13253,2.3712 z m 13.85946,7.8753 v 10.30959 l -0.1595,0.10431 c -0.21581,0.1372 -8.07531,4.65439 -8.10191,4.65439 -0.0113,0 -0.0265,-4.65469 -0.0265,-10.34448 l 0.004,-10.33952 4.10597,-2.36191 c 2.25789,-1.29932 4.11991,-2.35393 4.14214,-2.34625 0.0151,0.0264 0.0302,4.65631 0.0302,10.32417 z m 15.66441,-2.37124 4.11553,2.36602 v 4.69086 c 0,4.44999 -0.004,4.68923 -0.0722,4.66319 -0.0408,-0.0265 -1.90598,-1.08397 -4.13995,-2.37071 l -4.0692,-2.33636 v -4.68897 c 0,-2.58138 0.0113,-4.69089 0.0265,-4.69089 0.0265,0 1.87937,1.06424 4.14052,2.36686 z m 14.02762,2.29387 c 0,2.56793 -0.0151,4.68591 -0.034,4.70651 -0.0302,0.0465 -8.16938,4.73723 -8.22097,4.73723 -0.0113,0 -0.0265,-2.10838 -0.0265,-4.69007 v -4.68923 l 4.10594,-2.36326 c 2.26118,-1.29767 4.12324,-2.36191 4.14055,-2.36191 0.0265,0 0.034,2.09605 0.034,4.66073 z m -10.82949,10.92717 -18.06143,10.30905 -8.19108,-4.65903 c 0,0 18.04333,-10.43582 18.11575,-10.40868 z m 0.90947,6.08815 -0.0151,4.6983 -9.04457,5.20445 c -4.97647,2.86451 -9.06675,5.20446 -9.08735,5.20446 -0.0265,0 -0.034,-1.91252 -0.034,-4.72846 v -4.73285 l 9.06596,-5.17044 c 4.98142,-2.84259 9.07477,-5.16934 9.09643,-5.17429 0.0265,0 0.0265,2.11362 0.0265,4.69856 z" fill="#efefe9" stroke-width="0.410597" id="path38" />
        </g>
    </a>
    <a alt="GraphQL" href="https://graphql.org/" target="_blank" rel="noreferrer">
        <g id="GraphQL">
            <rect style="fill:#000000;stroke-width:0.264583;-inkscape-stroke:none;paint-order:stroke markers fill;stop-color:#000000;fill-opacity:0" id="rect1361-03" width="61.057079" height="61.057129" x="1009.9244" y="383.09103" />
            <path d="m 1040.4537,385.90734 a 4.9352043,4.9352097 0 0 0 -4.9404,4.94035 4.9352043,4.9352097 0 0 0 0.2706,1.36505 l -11.4894,6.63286 c -0.3194,-0.33676 -0.6725,-0.6488 -1.0946,-0.89409 -2.3638,-1.35791 -5.3923,-0.55094 -6.7516,1.8127 -1.3584,2.36369 -0.551,5.3923 1.8127,6.75161 0.4216,0.24227 0.8653,0.41314 1.3161,0.52109 v 13.17375 c -0.4461,0.10697 -0.885,0.27364 -1.3033,0.51406 -2.3633,1.37386 -3.1705,4.38827 -1.8104,6.75161 1.3579,2.36368 4.3733,3.17061 6.7504,1.81274 0.4179,-0.24303 0.7681,-0.55087 1.0854,-0.88362 l 11.4834,6.63048 a 4.9352043,4.9352097 0 0 0 -0.2694,1.35693 4.9352043,4.9352097 0 0 0 4.9404,4.9392 c 2.7317,0 4.9392,-2.22123 4.9392,-4.9392 a 4.9352043,4.9352097 0 0 0 -0.2601,-1.55045 l 11.3588,-6.55821 c 0.342,0.38393 0.7307,0.73452 1.2007,1.00487 2.3632,1.35787 5.3928,0.55094 6.7504,-1.81274 1.3738,-2.36365 0.567,-5.37854 -1.8104,-6.75161 -0.4177,-0.24 -0.8569,-0.40936 -1.3033,-0.51757 v -13.1702 c 0.4508,-0.10772 0.8945,-0.27893 1.3161,-0.52105 2.3637,-1.37379 3.1707,-4.38827 1.8127,-6.75161 -1.3733,-2.36368 -4.3882,-3.17061 -6.7516,-1.8127 -0.4246,0.2468 -0.7798,0.5605 -1.1004,0.8999 l -11.4256,-6.59581 a 4.9352043,4.9352097 0 0 0 0.2121,-1.40822 4.9352043,4.9352097 0 0 0 -4.9392,-4.94034 z m -3.5404,8.36551 a 4.9352043,4.9352097 0 0 0 0.1376,0.13077 l -14.935,25.86771 c -0.062,-0.0189 -0.1263,-0.0302 -0.189,-0.0454 V 407.0253 c 1.2567,-0.31294 2.39,-1.11163 3.0857,-2.3209 0.694,-1.20816 0.8163,-2.58369 0.4604,-3.82598 z m 7.0853,0.0113 11.4321,6.60243 c -0.353,1.24014 -0.2298,2.61223 0.4628,3.81779 0.6956,1.20926 1.8289,2.00802 3.0857,2.32089 v 13.1893 c -0.063,0.0151 -0.1255,0.034 -0.1878,0.0503 l -14.9363,-25.86766 a 4.9352043,4.9352097 0 0 0 0.1432,-0.11301 z m -4.8809,1.2392 a 4.9352043,4.9352097 0 0 0 1.3359,0.26456 4.9352043,4.9352097 0 0 0 1.3733,-0.20522 l 14.9249,25.84918 c -0.3341,0.31823 -0.6304,0.68625 -0.872,1.10627 -0.2396,0.41684 -0.3873,0.85784 -0.4954,1.30329 h -29.8624 c -0.1081,-0.44534 -0.2555,-0.88599 -0.4954,-1.30329 -0.2423,-0.41681 -0.5496,-0.76517 -0.8813,-1.08182 z m -13.5868,30.66699 h 29.8427 c 0.027,0.10696 0.064,0.20976 0.097,0.31483 l -11.3731,6.56782 a 4.9352043,4.9352097 0 0 0 -3.644,-1.61689 4.9352043,4.9352097 0 0 0 -3.545,1.52013 l -11.4274,-6.60062 c 0.019,-0.0616 0.034,-0.12283 0.05,-0.18557 z" fill="#efefe9" stroke-width="0.442304" id="path30" />
        </g>
    </a>
    <a alt="MySQL" href="https://www.mysql.com/" target="_blank" rel="noreferrer">
        <g id="MySQL">
            <rect style="fill:#000000;stroke-width:0.264583;-inkscape-stroke:none;paint-order:stroke markers fill;stop-color:#000000;fill-opacity:0" id="rect1361-85" width="61.057079" height="61.057129" x="1118.9851" y="383.33875" />
            <path d="m 1120.5485,426.22458 h 1.9198 v -7.57925 l 2.9718,6.60667 c 0.3496,0.80084 0.8291,1.08204 1.7714,1.08204 0.9423,0 1.402,-0.2812 1.7519,-1.08204 l 2.9718,-6.60667 v 7.57869 h 1.9198 v -7.56637 c 0,-0.73882 -0.2952,-1.09602 -0.9051,-1.27982 -1.4587,-0.45381 -2.4362,-0.0631 -2.8799,0.92288 l -2.915,6.52167 -2.8231,-6.52167 c -0.424,-0.98464 -1.4211,-1.37722 -2.8779,-0.92288 -0.6101,0.18368 -0.9052,0.54126 -0.9052,1.27982 z m 14.9033,-6.1699 h 1.9181 v 4.17563 c -0.026,0.22753 0.072,0.75886 1.1242,0.77613 h 4.1742 v -4.97345 h 1.9235 c 0,0 0,6.78173 0,6.81027 0.011,1.67218 -2.0738,2.03486 -3.0355,2.06313 h -6.0601 v -1.29086 h 6.0708 c 1.2355,-0.12888 1.0889,-0.74431 1.0889,-0.94923 v -0.50427 h -4.0785 c -1.8986,-0.0265 -3.1062,-0.84665 -3.1218,-1.79977 0,-0.0877 0.041,-4.26426 0,-4.30705 z m 10.618,6.1699 h 5.5191 c 0.6454,0 1.2732,-0.13719 1.7714,-0.36963 0.8309,-0.37943 1.2356,-0.89795 1.2356,-1.57505 v -1.40194 c 0,-0.55367 -0.4598,-1.07135 -1.365,-1.4143 -0.4792,-0.18671 -1.0713,-0.28347 -1.6424,-0.28347 h -2.3267 c -0.7744,0 -1.1437,-0.2332 -1.2356,-0.74952 -0.026,-0.0605 -0.026,-0.10961 -0.026,-0.17272 v -0.87353 c 0,-0.0522 0,-0.0986 0.026,-0.15912 0.092,-0.39231 0.2952,-0.5037 0.9776,-0.56572 l 0.1855,-0.0265 h 5.4805 v -1.2782 h -5.388 c -0.7744,0 -1.1808,0.0522 -1.5506,0.15912 -1.1437,0.35679 -1.6424,0.92293 -1.6424,1.90757 v 1.11939 c 0,0.8609 0.9776,1.59999 2.62,1.7712 0.1856,0.0265 0.3696,0.0265 0.5535,0.0265 h 1.9941 c 0.074,0 0.1466,0 0.2033,0.0265 0.6083,0.0522 0.8662,0.16177 1.0518,0.38189 0.096,0.0907 0.1497,0.21392 0.1467,0.34318 v 1.12127 c 0,0.13455 -0.092,0.30766 -0.2752,0.45377 -0.1663,0.14816 -0.4439,0.24681 -0.8114,0.27175 l -0.2034,0.0265 h -5.298 z m 20.5004,-2.22773 c 0,1.31717 0.9794,2.05433 2.952,2.20275 0.1856,0.0265 0.3697,0.0265 0.5553,0.0265 h 5.0014 v -1.28013 h -5.0385 c -1.126,0 -1.5505,-0.28271 -1.5505,-0.95996 v -6.61929 h -1.918 v 6.63108 z m -10.7488,0.0658 v -4.56303 c 0,-1.15831 0.8151,-1.86149 2.4235,-2.0829 a 3.6096504,3.6096543 0 0 1 0.5184,-0.034 h 3.6417 c 0.1856,0 0.3519,0.0264 0.5377,0.034 1.609,0.22224 2.4222,0.92459 2.4222,2.0829 v 4.56303 c 0,0.9402 -0.345,1.44254 -1.1419,1.77121 l 1.8918,1.70619 h -2.2294 l -1.5292,-1.38055 -1.5397,0.0986 h -2.0525 a 4.1772849,4.1772894 0 0 1 -1.1277,-0.15912 c -1.2216,-0.33184 -1.814,-0.97399 -1.814,-2.0346 z m 2.0719,-0.1096 c 0,0.0631 0.026,0.12359 0.034,0.19767 0.1115,0.53057 0.6118,0.82552 1.3681,0.82552 h 1.7433 l -1.6016,-1.44612 h 2.2294 l 1.3967,1.26229 c 0.2578,-0.1372 0.4276,-0.34659 0.4861,-0.61675 0.027,-0.0631 0.027,-0.12359 0.027,-0.18671 v -4.37537 c 0,-0.0522 0,-0.10961 -0.027,-0.17273 -0.1115,-0.49327 -0.61,-0.77613 -1.3486,-0.77613 h -2.9046 c -0.8504,0 -1.4053,0.36964 -1.4053,0.9498 z m 18.874,-8.71013 c -1.179,-0.0302 -2.0809,0.0767 -2.8516,0.40275 -0.2188,0.0934 -0.5693,0.0934 -0.6046,0.36775 0.1206,0.12623 0.1398,0.31634 0.2355,0.47025 0.1833,0.29858 0.4955,0.69657 0.7725,0.90535 0.3005,0.23055 0.6132,0.4738 0.9387,0.67162 0.5763,0.35188 1.2214,0.55336 1.7786,0.90509 0.3273,0.20863 0.6521,0.47025 0.9721,0.70563 0.1576,0.11528 0.2638,0.2967 0.4703,0.36964 v -0.0302 c -0.1077,-0.1372 -0.1356,-0.32731 -0.2354,-0.47025 l -0.437,-0.43703 c -0.4258,-0.56572 -0.9671,-1.06258 -1.5433,-1.47629 -0.4598,-0.32919 -1.4849,-0.77423 -1.6777,-1.3084 l -0.03,-0.0302 c 0.325,-0.034 0.7074,-0.15345 1.0061,-0.2332 0.5055,-0.1372 0.9564,-0.10167 1.4763,-0.23584 l 0.7056,-0.20296 V 415.485 c -0.2635,-0.27175 -0.4504,-0.62771 -0.7391,-0.87353 -0.7494,-0.63813 -1.57,-1.2782 -2.415,-1.81209 -0.468,-0.29519 -1.0463,-0.48617 -1.5432,-0.7372 -0.1663,-0.085 -0.4598,-0.12624 -0.5711,-0.26873 -0.26,-0.33298 -0.4012,-0.75311 -0.6028,-1.14078 a 43.690571,43.690619 0 0 1 -1.2075,-2.54929 c -0.2543,-0.5816 -0.4211,-1.15639 -0.739,-1.67766 -1.522,-2.50511 -3.1628,-4.01678 -5.7035,-5.50157 -0.5389,-0.31634 -1.1917,-0.44062 -1.8774,-0.60302 l -1.1083,-0.0658 c -0.2245,-0.096 -0.4581,-0.37077 -0.6699,-0.50373 -0.8413,-0.5325 -3,-1.68809 -3.6241,-0.16744 -0.3925,0.95997 0.5888,1.89688 0.9404,2.3833 0.246,0.34167 0.5623,0.72348 0.7372,1.10646 0.1172,0.25248 0.1357,0.50453 0.2355,0.77095 0.2442,0.6576 0.4563,1.37175 0.7725,1.97999 0.1595,0.30765 0.3345,0.63156 0.5359,0.90538 0.1236,0.16744 0.3357,0.24416 0.3697,0.5037 -0.2068,0.28989 -0.2188,0.73883 -0.3356,1.10646 -0.5249,1.65298 -0.3273,3.70704 0.4363,4.93229 0.2332,0.37493 0.7848,1.18084 1.5433,0.87164 0.663,-0.27175 0.5143,-1.10672 0.7038,-1.84558 0.047,-0.16744 0.026,-0.28989 0.1005,-0.40135 v 0.0302 l 0.6047,1.20772 c 0.4475,0.71935 1.2391,1.4708 1.9112,1.97805 0.3497,0.26344 0.6241,0.71963 1.0749,0.87357 v -0.034 h -0.03 c -0.088,-0.13455 -0.2245,-0.192 -0.3356,-0.30047 -0.2638,-0.25777 -0.5553,-0.57835 -0.7708,-0.87357 -0.6118,-0.82934 -1.1526,-1.73801 -1.6441,-2.68399 -0.2355,-0.45102 -0.4405,-0.94954 -0.6382,-1.40879 -0.076,-0.17839 -0.075,-0.44527 -0.2332,-0.53609 -0.2173,0.33638 -0.5371,0.60851 -0.7056,1.00634 -0.2687,0.63428 -0.3024,1.41071 -0.403,2.21375 l -0.066,0.0302 c -0.4668,-0.11263 -0.6313,-0.59369 -0.8042,-1.00578 -0.4399,-1.04334 -0.5213,-2.72485 -0.1346,-3.92516 0.099,-0.31067 0.5518,-1.29056 0.3678,-1.5764 -0.086,-0.28649 -0.3749,-0.45298 -0.536,-0.67189 a 5.2952696,5.2952754 0 0 1 -0.5371,-0.93857 c -0.359,-0.8151 -0.5265,-1.72706 -0.9051,-2.5493 -0.1807,-0.39424 -0.4861,-0.79204 -0.7373,-1.1421 -0.2789,-0.38713 -0.5906,-0.67162 -0.806,-1.14051 -0.076,-0.16743 -0.1807,-0.43291 -0.068,-0.60465 0.034,-0.11528 0.089,-0.16176 0.2015,-0.20031 0.195,-0.15081 0.7372,0.0521 0.9386,0.13455 0.5388,0.22488 0.9884,0.43702 1.4442,0.73908 0.2173,0.14552 0.4387,0.42581 0.7037,0.5037 h 0.3024 c 0.4721,0.10696 1.0007,0.0302 1.4429,0.16744 0.7797,0.23584 1.4799,0.60631 2.1126,1.0077 1.9338,1.22003 3.5148,2.95778 4.5966,5.03135 0.175,0.33373 0.2498,0.65242 0.4029,1.00634 0.3099,0.71414 0.6984,1.44938 1.0061,2.14791 0.3077,0.69819 0.6064,1.40028 1.0396,1.97998 0.2275,0.30388 1.1101,0.46666 1.5098,0.63621 0.2812,0.11792 0.7409,0.24151 1.0061,0.40305 0.5089,0.30652 1.0006,0.6697 1.478,1.00604 0.2374,0.17008 0.969,0.53771 1.0062,0.83951 z m -14.9972,-12.78182 a 2.3805805,2.3805831 0 0 0 -0.6027,0.0658 v 0.0302 h 0.03 c 0.1172,0.24152 0.3239,0.39837 0.468,0.60439 l 0.3356,0.70401 0.03,-0.0302 c 0.209,-0.14552 0.3023,-0.38189 0.3023,-0.73909 -0.085,-0.0877 -0.096,-0.19767 -0.1682,-0.30236 -0.096,-0.13985 -0.2812,-0.21657 -0.4029,-0.33563 z" fill="#efefe9" stroke-width="0.452573" id="path24" />
        </g>
    </a>
    <a alt="GIT" href="https://git-scm.com/" target="_blank" rel="noreferrer">
        <g id="GIT">
            <rect style="fill:#000000;stroke-width:0.264583;-inkscape-stroke:none;paint-order:stroke markers fill;stop-color:#000000;fill-opacity:0" id="rect1361-64" width="61.057079" height="61.057129" x="1228.0415" y="383.20621" />
            <path d="m 1285.9216,411.20347 -24.8148,-24.81382 c -1.4282,-1.42882 -3.7458,-1.42882 -5.1763,0 l -5.1517,5.15343 6.5361,6.53618 c 1.5196,-0.51303 3.261,-0.16743 4.4717,1.04198 a 4.3490294,4.3490341 0 0 1 1.0323,4.49885 l 6.2994,6.30049 c 1.5241,-0.52539 3.2829,-0.18671 4.4997,1.03321 1.7018,1.70072 1.7018,4.45739 0,6.15868 a 4.3550649,4.3550697 0 0 1 -6.1603,0 4.3567113,4.356716 0 0 1 -0.9477,-4.73671 l -5.8744,-5.87498 -9e-4,15.46113 a 4.3707031,4.3707079 0 0 1 1.1521,0.82307 c 1.7014,1.70041 1.7014,4.45656 0,6.1603 -1.7014,1.70041 -4.459,1.70041 -6.1586,0 -1.701,-1.70374 -1.8405,-4.45932 -0.1406,-6.1603 0.4205,-0.42059 0.8351,-0.73776 1.2854,-0.94983 v -15.60461 c -0.4498,-0.21392 -0.8645,-0.52758 -1.2858,-0.95036 -1.2882,-1.28754 -1.529,-3.17863 -0.868,-4.76138 l -6.4081,-6.44426 -16.9977,17.01422 c -1.4295,1.42995 -1.4205,3.74794 0.011,5.17732 l 24.819,24.81381 c 1.4285,1.42882 3.7482,1.42882 5.1789,0 l 24.6991,-24.69831 c 1.4294,-1.43021 1.4308,-3.7493 0,-5.17811 z" fill="#efefe9" stroke-width="0.45021" id="path18" />
        </g>
    </a>
</svg>